<svg xmlns="http://www.w3.org/2000/svg" id="SymO2Kf5_bottom" fill-rule="evenodd" stroke-width="0" stroke-linecap="round" stroke-linejoin="round" xmlns:xlink="http://www.w3.org/1999/xlink" clip-rule="evenodd" viewBox="168.2 102.3 3799.7 1540.1"><defs><style>/*<![CDATA[ */.SymO2Kf5_fr4 {color: #4D542C;}
.SymO2Kf5_cu {color: lightgrey;}
.SymO2Kf5_cf {color: silver;}
.SymO2Kf5_sm {color: rgba(  0,   0,   0, 0.90);}
.SymO2Kf5_ss {color: white;}
.SymO2Kf5_sp {color: rgba(0, 0, 0, 0.0);}
.SymO2Kf5_out {color: black;}/* ]]>*/</style><path id="rJZmdnFMq_pad-12" d="M37 15.326L15.326 37h-30.652L-37 15.326v-30.652L-15.326-37h30.652L37-15.326z"/><circle id="rJZmdnFMq_pad-13" r="33"/><path id="rJZmdnFMq_pad-14" d="M-63-63H63V63H-63z"/><circle id="rJZmdnFMq_pad-15" r="25.1"/><path id="rJZmdnFMq_pad-16" d="M-44.3-44.3h88.6v88.6h-88.6z"/><circle id="rJZmdnFMq_pad-19" r="15.85"/><circle id="rJZmdnFMq_pad-21" r="17.8"/><path id="rJZmdnFMq_pad-22" d="M-17.8-17.8h35.6v35.6h-35.6z"/><path id="rJZmdnFMq_pad-12" d="M37 15.326L15.326 37h-30.652L-37 15.326v-30.652L-15.326-37h30.652L37-15.326z"/><circle id="rJZmdnFMq_pad-13" r="33"/><path id="rJZmdnFMq_pad-14" d="M-63-63H63V63H-63z"/><circle id="rJZmdnFMq_pad-15" r="25.1"/><path id="rJZmdnFMq_pad-16" d="M-44.3-44.3h88.6v88.6h-88.6z"/><circle id="rJZmdnFMq_pad-19" r="15.85"/><circle id="rJZmdnFMq_pad-21" r="17.8"/><path id="rJZmdnFMq_pad-22" d="M-17.8-17.8h35.6v35.6h-35.6z"/><path id="B1zQd3YM5_pad-15" d="M-427.15-220.45h854.3v440.9h-854.3z"/><path id="rJZmdnFMq_pad-12" d="M37 15.326L15.326 37h-30.652L-37 15.326v-30.652L-15.326-37h30.652L37-15.326z"/><circle id="rJZmdnFMq_pad-13" r="33"/><path id="rJZmdnFMq_pad-14" d="M-63-63H63V63H-63z"/><circle id="rJZmdnFMq_pad-15" r="25.1"/><path id="rJZmdnFMq_pad-16" d="M-44.3-44.3h88.6v88.6h-88.6z"/><circle id="rJZmdnFMq_pad-19" r="15.85"/><circle id="rJZmdnFMq_pad-21" r="17.8"/><path id="rJZmdnFMq_pad-22" d="M-17.8-17.8h35.6v35.6h-35.6z"/><path id="rJZmdnFMq_pad-12" d="M37 15.326L15.326 37h-30.652L-37 15.326v-30.652L-15.326-37h30.652L37-15.326z"/><circle id="rJZmdnFMq_pad-13" r="33"/><path id="rJZmdnFMq_pad-14" d="M-63-63H63V63H-63z"/><circle id="rJZmdnFMq_pad-15" r="25.1"/><path id="rJZmdnFMq_pad-16" d="M-44.3-44.3h88.6v88.6h-88.6z"/><circle id="rJZmdnFMq_pad-19" r="15.85"/><circle id="rJZmdnFMq_pad-21" r="17.8"/><path id="rJZmdnFMq_pad-22" d="M-17.8-17.8h35.6v35.6h-35.6z"/><path id="B1zQd3YM5_pad-15" d="M-427.15-220.45h854.3v440.9h-854.3z"/><path id="rJZmdnFMq_pad-12" d="M37 15.326L15.326 37h-30.652L-37 15.326v-30.652L-15.326-37h30.652L37-15.326z"/><circle id="rJZmdnFMq_pad-13" r="33"/><path id="rJZmdnFMq_pad-14" d="M-63-63H63V63H-63z"/><circle id="rJZmdnFMq_pad-15" r="25.1"/><path id="rJZmdnFMq_pad-16" d="M-44.3-44.3h88.6v88.6h-88.6z"/><circle id="rJZmdnFMq_pad-19" r="15.85"/><circle id="rJZmdnFMq_pad-21" r="17.8"/><path id="rJZmdnFMq_pad-22" d="M-17.8-17.8h35.6v35.6h-35.6z"/><path id="rJZmdnFMq_pad-12" d="M37 15.326L15.326 37h-30.652L-37 15.326v-30.652L-15.326-37h30.652L37-15.326z"/><circle id="rJZmdnFMq_pad-13" r="33"/><path id="rJZmdnFMq_pad-14" d="M-63-63H63V63H-63z"/><circle id="rJZmdnFMq_pad-15" r="25.1"/><path id="rJZmdnFMq_pad-16" d="M-44.3-44.3h88.6v88.6h-88.6z"/><circle id="rJZmdnFMq_pad-19" r="15.85"/><circle id="rJZmdnFMq_pad-21" r="17.8"/><path id="rJZmdnFMq_pad-22" d="M-17.8-17.8h35.6v35.6h-35.6z"/><path id="B1zQd3YM5_pad-15" d="M-427.15-220.45h854.3v440.9h-854.3z"/><path id="rJZmdnFMq_pad-12" d="M37 15.326L15.326 37h-30.652L-37 15.326v-30.652L-15.326-37h30.652L37-15.326z"/><circle id="rJZmdnFMq_pad-13" r="33"/><path id="rJZmdnFMq_pad-14" d="M-63-63H63V63H-63z"/><circle id="rJZmdnFMq_pad-15" r="25.1"/><path id="rJZmdnFMq_pad-16" d="M-44.3-44.3h88.6v88.6h-88.6z"/><circle id="rJZmdnFMq_pad-19" r="15.85"/><circle id="rJZmdnFMq_pad-21" r="17.8"/><path id="rJZmdnFMq_pad-22" d="M-17.8-17.8h35.6v35.6h-35.6z"/><path id="rJZmdnFMq_pad-12" d="M37 15.326L15.326 37h-30.652L-37 15.326v-30.652L-15.326-37h30.652L37-15.326z"/><circle id="rJZmdnFMq_pad-13" r="33"/><path id="rJZmdnFMq_pad-14" d="M-63-63H63V63H-63z"/><circle id="rJZmdnFMq_pad-15" r="25.1"/><path id="rJZmdnFMq_pad-16" d="M-44.3-44.3h88.6v88.6h-88.6z"/><circle id="rJZmdnFMq_pad-19" r="15.85"/><circle id="rJZmdnFMq_pad-21" r="17.8"/><path id="rJZmdnFMq_pad-22" d="M-17.8-17.8h35.6v35.6h-35.6z"/><path id="B1zQd3YM5_pad-15" d="M-427.15-220.45h854.3v440.9h-854.3z"/><path id="Hyl4_nYz9_pad-12" d="M39 16.154L16.154 39h-32.308L-39 16.154v-32.308L-16.154-39h32.308L39-16.154z"/><circle id="Hyl4_nYz9_pad-13" r="35"/><path id="Hyl4_nYz9_pad-14" d="M-65-65H65V65H-65z"/><circle id="Hyl4_nYz9_pad-15" r="27.1"/><path id="Hyl4_nYz9_pad-16" d="M-46.3-46.3h92.6v92.6h-92.6z"/><circle id="Hyl4_nYz9_pad-18" r="25.6"/><path id="rJZmdnFMq_pad-12" d="M37 15.326L15.326 37h-30.652L-37 15.326v-30.652L-15.326-37h30.652L37-15.326z"/><circle id="rJZmdnFMq_pad-13" r="33"/><path id="rJZmdnFMq_pad-14" d="M-63-63H63V63H-63z"/><circle id="rJZmdnFMq_pad-15" r="25.1"/><path id="rJZmdnFMq_pad-16" d="M-44.3-44.3h88.6v88.6h-88.6z"/><circle id="rJZmdnFMq_pad-19" r="15.85"/><circle id="rJZmdnFMq_pad-21" r="17.8"/><path id="rJZmdnFMq_pad-22" d="M-17.8-17.8h35.6v35.6h-35.6z"/><path id="rJZmdnFMq_pad-12" d="M37 15.326L15.326 37h-30.652L-37 15.326v-30.652L-15.326-37h30.652L37-15.326z"/><circle id="rJZmdnFMq_pad-13" r="33"/><path id="rJZmdnFMq_pad-14" d="M-63-63H63V63H-63z"/><circle id="rJZmdnFMq_pad-15" r="25.1"/><path id="rJZmdnFMq_pad-16" d="M-44.3-44.3h88.6v88.6h-88.6z"/><circle id="rJZmdnFMq_pad-19" r="15.85"/><circle id="rJZmdnFMq_pad-21" r="17.8"/><path id="rJZmdnFMq_pad-22" d="M-17.8-17.8h35.6v35.6h-35.6z"/><path id="B1zQd3YM5_pad-15" d="M-427.15-220.45h854.3v440.9h-854.3z"/><path id="rJZmdnFMq_pad-12" d="M37 15.326L15.326 37h-30.652L-37 15.326v-30.652L-15.326-37h30.652L37-15.326z"/><circle id="rJZmdnFMq_pad-13" r="33"/><path id="rJZmdnFMq_pad-14" d="M-63-63H63V63H-63z"/><circle id="rJZmdnFMq_pad-15" r="25.1"/><path id="rJZmdnFMq_pad-16" d="M-44.3-44.3h88.6v88.6h-88.6z"/><circle id="rJZmdnFMq_pad-19" r="15.85"/><circle id="rJZmdnFMq_pad-21" r="17.8"/><path id="rJZmdnFMq_pad-22" d="M-17.8-17.8h35.6v35.6h-35.6z"/><path id="rJZmdnFMq_pad-12" d="M37 15.326L15.326 37h-30.652L-37 15.326v-30.652L-15.326-37h30.652L37-15.326z"/><circle id="rJZmdnFMq_pad-13" r="33"/><path id="rJZmdnFMq_pad-14" d="M-63-63H63V63H-63z"/><circle id="rJZmdnFMq_pad-15" r="25.1"/><path id="rJZmdnFMq_pad-16" d="M-44.3-44.3h88.6v88.6h-88.6z"/><circle id="rJZmdnFMq_pad-19" r="15.85"/><circle id="rJZmdnFMq_pad-21" r="17.8"/><path id="rJZmdnFMq_pad-22" d="M-17.8-17.8h35.6v35.6h-35.6z"/><path id="B1zQd3YM5_pad-15" d="M-427.15-220.45h854.3v440.9h-854.3z"/><path id="rJZmdnFMq_pad-12" d="M37 15.326L15.326 37h-30.652L-37 15.326v-30.652L-15.326-37h30.652L37-15.326z"/><circle id="rJZmdnFMq_pad-13" r="33"/><path id="rJZmdnFMq_pad-14" d="M-63-63H63V63H-63z"/><circle id="rJZmdnFMq_pad-15" r="25.1"/><path id="rJZmdnFMq_pad-16" d="M-44.3-44.3h88.6v88.6h-88.6z"/><circle id="rJZmdnFMq_pad-19" r="15.85"/><circle id="rJZmdnFMq_pad-21" r="17.8"/><path id="rJZmdnFMq_pad-22" d="M-17.8-17.8h35.6v35.6h-35.6z"/><path id="rJZmdnFMq_pad-12" d="M37 15.326L15.326 37h-30.652L-37 15.326v-30.652L-15.326-37h30.652L37-15.326z"/><circle id="rJZmdnFMq_pad-13" r="33"/><path id="rJZmdnFMq_pad-14" d="M-63-63H63V63H-63z"/><circle id="rJZmdnFMq_pad-15" r="25.1"/><path id="rJZmdnFMq_pad-16" d="M-44.3-44.3h88.6v88.6h-88.6z"/><circle id="rJZmdnFMq_pad-19" r="15.85"/><circle id="rJZmdnFMq_pad-21" r="17.8"/><path id="rJZmdnFMq_pad-22" d="M-17.8-17.8h35.6v35.6h-35.6z"/><path id="B1zQd3YM5_pad-15" d="M-427.15-220.45h854.3v440.9h-854.3z"/><path id="rJZmdnFMq_pad-12" d="M37 15.326L15.326 37h-30.652L-37 15.326v-30.652L-15.326-37h30.652L37-15.326z"/><circle id="rJZmdnFMq_pad-13" r="33"/><path id="rJZmdnFMq_pad-14" d="M-63-63H63V63H-63z"/><circle id="rJZmdnFMq_pad-15" r="25.1"/><path id="rJZmdnFMq_pad-16" d="M-44.3-44.3h88.6v88.6h-88.6z"/><circle id="rJZmdnFMq_pad-19" r="15.85"/><circle id="rJZmdnFMq_pad-21" r="17.8"/><path id="rJZmdnFMq_pad-22" d="M-17.8-17.8h35.6v35.6h-35.6z"/><path id="rJZmdnFMq_pad-12" d="M37 15.326L15.326 37h-30.652L-37 15.326v-30.652L-15.326-37h30.652L37-15.326z"/><circle id="rJZmdnFMq_pad-13" r="33"/><path id="rJZmdnFMq_pad-14" d="M-63-63H63V63H-63z"/><circle id="rJZmdnFMq_pad-15" r="25.1"/><path id="rJZmdnFMq_pad-16" d="M-44.3-44.3h88.6v88.6h-88.6z"/><circle id="rJZmdnFMq_pad-19" r="15.85"/><circle id="rJZmdnFMq_pad-21" r="17.8"/><path id="rJZmdnFMq_pad-22" d="M-17.8-17.8h35.6v35.6h-35.6z"/><path id="B1zQd3YM5_pad-15" d="M-427.15-220.45h854.3v440.9h-854.3z"/><path id="Hyl4_nYz9_pad-12" d="M39 16.154L16.154 39h-32.308L-39 16.154v-32.308L-16.154-39h32.308L39-16.154z"/><circle id="Hyl4_nYz9_pad-13" r="35"/><path id="Hyl4_nYz9_pad-14" d="M-65-65H65V65H-65z"/><circle id="Hyl4_nYz9_pad-15" r="27.1"/><path id="Hyl4_nYz9_pad-16" d="M-46.3-46.3h92.6v92.6h-92.6z"/><circle id="Hyl4_nYz9_pad-18" r="25.6"/><circle id="rJvNd3tMc_pad-1" r="9.85"/><circle id="rJvNd3tMc_pad-2" r="11.8"/><circle id="rJvNd3tMc_pad-3" r="16.75"/><circle id="rJvNd3tMc_pad-4" r="20"/><circle id="rJvNd3tMc_pad-5" r="21.65"/><circle id="rJvNd3tMc_pad-6" r="23.6"/><circle id="rJvNd3tMc_pad-7" r="29.55"/><circle id="rJvNd3tMc_pad-8" r="39.35"/><path id="rJZmdnFMq_pad-12" d="M37 15.326L15.326 37h-30.652L-37 15.326v-30.652L-15.326-37h30.652L37-15.326z"/><circle id="rJZmdnFMq_pad-13" r="33"/><path id="rJZmdnFMq_pad-14" d="M-63-63H63V63H-63z"/><circle id="rJZmdnFMq_pad-15" r="25.1"/><path id="rJZmdnFMq_pad-16" d="M-44.3-44.3h88.6v88.6h-88.6z"/><circle id="rJZmdnFMq_pad-19" r="15.85"/><circle id="rJZmdnFMq_pad-21" r="17.8"/><path id="rJZmdnFMq_pad-22" d="M-17.8-17.8h35.6v35.6h-35.6z"/><path id="rJZmdnFMq_pad-12" d="M37 15.326L15.326 37h-30.652L-37 15.326v-30.652L-15.326-37h30.652L37-15.326z"/><circle id="rJZmdnFMq_pad-13" r="33"/><path id="rJZmdnFMq_pad-14" d="M-63-63H63V63H-63z"/><circle id="rJZmdnFMq_pad-15" r="25.1"/><path id="rJZmdnFMq_pad-16" d="M-44.3-44.3h88.6v88.6h-88.6z"/><circle id="rJZmdnFMq_pad-19" r="15.85"/><circle id="rJZmdnFMq_pad-21" r="17.8"/><path id="rJZmdnFMq_pad-22" d="M-17.8-17.8h35.6v35.6h-35.6z"/><path id="B1zQd3YM5_pad-15" d="M-427.15-220.45h854.3v440.9h-854.3z"/><path id="rJZmdnFMq_pad-12" d="M37 15.326L15.326 37h-30.652L-37 15.326v-30.652L-15.326-37h30.652L37-15.326z"/><circle id="rJZmdnFMq_pad-13" r="33"/><path id="rJZmdnFMq_pad-14" d="M-63-63H63V63H-63z"/><circle id="rJZmdnFMq_pad-15" r="25.1"/><path id="rJZmdnFMq_pad-16" d="M-44.3-44.3h88.6v88.6h-88.6z"/><circle id="rJZmdnFMq_pad-19" r="15.85"/><circle id="rJZmdnFMq_pad-21" r="17.8"/><path id="rJZmdnFMq_pad-22" d="M-17.8-17.8h35.6v35.6h-35.6z"/><path id="rJZmdnFMq_pad-12" d="M37 15.326L15.326 37h-30.652L-37 15.326v-30.652L-15.326-37h30.652L37-15.326z"/><circle id="rJZmdnFMq_pad-13" r="33"/><path id="rJZmdnFMq_pad-14" d="M-63-63H63V63H-63z"/><circle id="rJZmdnFMq_pad-15" r="25.1"/><path id="rJZmdnFMq_pad-16" d="M-44.3-44.3h88.6v88.6h-88.6z"/><circle id="rJZmdnFMq_pad-19" r="15.85"/><circle id="rJZmdnFMq_pad-21" r="17.8"/><path id="rJZmdnFMq_pad-22" d="M-17.8-17.8h35.6v35.6h-35.6z"/><path id="B1zQd3YM5_pad-15" d="M-427.15-220.45h854.3v440.9h-854.3z"/><path id="rJZmdnFMq_pad-12" d="M37 15.326L15.326 37h-30.652L-37 15.326v-30.652L-15.326-37h30.652L37-15.326z"/><circle id="rJZmdnFMq_pad-13" r="33"/><path id="rJZmdnFMq_pad-14" d="M-63-63H63V63H-63z"/><circle id="rJZmdnFMq_pad-15" r="25.1"/><path id="rJZmdnFMq_pad-16" d="M-44.3-44.3h88.6v88.6h-88.6z"/><circle id="rJZmdnFMq_pad-19" r="15.85"/><circle id="rJZmdnFMq_pad-21" r="17.8"/><path id="rJZmdnFMq_pad-22" d="M-17.8-17.8h35.6v35.6h-35.6z"/><path id="rJZmdnFMq_pad-12" d="M37 15.326L15.326 37h-30.652L-37 15.326v-30.652L-15.326-37h30.652L37-15.326z"/><circle id="rJZmdnFMq_pad-13" r="33"/><path id="rJZmdnFMq_pad-14" d="M-63-63H63V63H-63z"/><circle id="rJZmdnFMq_pad-15" r="25.1"/><path id="rJZmdnFMq_pad-16" d="M-44.3-44.3h88.6v88.6h-88.6z"/><circle id="rJZmdnFMq_pad-19" r="15.85"/><circle id="rJZmdnFMq_pad-21" r="17.8"/><path id="rJZmdnFMq_pad-22" d="M-17.8-17.8h35.6v35.6h-35.6z"/><path id="B1zQd3YM5_pad-15" d="M-427.15-220.45h854.3v440.9h-854.3z"/><path id="rJZmdnFMq_pad-12" d="M37 15.326L15.326 37h-30.652L-37 15.326v-30.652L-15.326-37h30.652L37-15.326z"/><circle id="rJZmdnFMq_pad-13" r="33"/><path id="rJZmdnFMq_pad-14" d="M-63-63H63V63H-63z"/><circle id="rJZmdnFMq_pad-15" r="25.1"/><path id="rJZmdnFMq_pad-16" d="M-44.3-44.3h88.6v88.6h-88.6z"/><circle id="rJZmdnFMq_pad-19" r="15.85"/><circle id="rJZmdnFMq_pad-21" r="17.8"/><path id="rJZmdnFMq_pad-22" d="M-17.8-17.8h35.6v35.6h-35.6z"/><path id="rJZmdnFMq_pad-12" d="M37 15.326L15.326 37h-30.652L-37 15.326v-30.652L-15.326-37h30.652L37-15.326z"/><circle id="rJZmdnFMq_pad-13" r="33"/><path id="rJZmdnFMq_pad-14" d="M-63-63H63V63H-63z"/><circle id="rJZmdnFMq_pad-15" r="25.1"/><path id="rJZmdnFMq_pad-16" d="M-44.3-44.3h88.6v88.6h-88.6z"/><circle id="rJZmdnFMq_pad-19" r="15.85"/><circle id="rJZmdnFMq_pad-21" r="17.8"/><path id="rJZmdnFMq_pad-22" d="M-17.8-17.8h35.6v35.6h-35.6z"/><path id="B1zQd3YM5_pad-15" d="M-427.15-220.45h854.3v440.9h-854.3z"/><path id="Hyl4_nYz9_pad-12" d="M39 16.154L16.154 39h-32.308L-39 16.154v-32.308L-16.154-39h32.308L39-16.154z"/><circle id="Hyl4_nYz9_pad-13" r="35"/><path id="Hyl4_nYz9_pad-14" d="M-65-65H65V65H-65z"/><circle id="Hyl4_nYz9_pad-15" r="27.1"/><path id="Hyl4_nYz9_pad-16" d="M-46.3-46.3h92.6v92.6h-92.6z"/><circle id="Hyl4_nYz9_pad-18" r="25.6"/><path id="rJZmdnFMq_pad-12" d="M37 15.326L15.326 37h-30.652L-37 15.326v-30.652L-15.326-37h30.652L37-15.326z"/><circle id="rJZmdnFMq_pad-13" r="33"/><path id="rJZmdnFMq_pad-14" d="M-63-63H63V63H-63z"/><circle id="rJZmdnFMq_pad-15" r="25.1"/><path id="rJZmdnFMq_pad-16" d="M-44.3-44.3h88.6v88.6h-88.6z"/><circle id="rJZmdnFMq_pad-19" r="15.85"/><circle id="rJZmdnFMq_pad-21" r="17.8"/><path id="rJZmdnFMq_pad-22" d="M-17.8-17.8h35.6v35.6h-35.6z"/><path id="rJZmdnFMq_pad-12" d="M37 15.326L15.326 37h-30.652L-37 15.326v-30.652L-15.326-37h30.652L37-15.326z"/><circle id="rJZmdnFMq_pad-13" r="33"/><path id="rJZmdnFMq_pad-14" d="M-63-63H63V63H-63z"/><circle id="rJZmdnFMq_pad-15" r="25.1"/><path id="rJZmdnFMq_pad-16" d="M-44.3-44.3h88.6v88.6h-88.6z"/><circle id="rJZmdnFMq_pad-19" r="15.85"/><circle id="rJZmdnFMq_pad-21" r="17.8"/><path id="rJZmdnFMq_pad-22" d="M-17.8-17.8h35.6v35.6h-35.6z"/><path id="B1zQd3YM5_pad-15" d="M-427.15-220.45h854.3v440.9h-854.3z"/><path id="rJZmdnFMq_pad-12" d="M37 15.326L15.326 37h-30.652L-37 15.326v-30.652L-15.326-37h30.652L37-15.326z"/><circle id="rJZmdnFMq_pad-13" r="33"/><path id="rJZmdnFMq_pad-14" d="M-63-63H63V63H-63z"/><circle id="rJZmdnFMq_pad-15" r="25.1"/><path id="rJZmdnFMq_pad-16" d="M-44.3-44.3h88.6v88.6h-88.6z"/><circle id="rJZmdnFMq_pad-19" r="15.85"/><circle id="rJZmdnFMq_pad-21" r="17.8"/><path id="rJZmdnFMq_pad-22" d="M-17.8-17.8h35.6v35.6h-35.6z"/><path id="rJZmdnFMq_pad-12" d="M37 15.326L15.326 37h-30.652L-37 15.326v-30.652L-15.326-37h30.652L37-15.326z"/><circle id="rJZmdnFMq_pad-13" r="33"/><path id="rJZmdnFMq_pad-14" d="M-63-63H63V63H-63z"/><circle id="rJZmdnFMq_pad-15" r="25.1"/><path id="rJZmdnFMq_pad-16" d="M-44.3-44.3h88.6v88.6h-88.6z"/><circle id="rJZmdnFMq_pad-19" r="15.85"/><circle id="rJZmdnFMq_pad-21" r="17.8"/><path id="rJZmdnFMq_pad-22" d="M-17.8-17.8h35.6v35.6h-35.6z"/><path id="B1zQd3YM5_pad-15" d="M-427.15-220.45h854.3v440.9h-854.3z"/><path id="rJZmdnFMq_pad-12" d="M37 15.326L15.326 37h-30.652L-37 15.326v-30.652L-15.326-37h30.652L37-15.326z"/><circle id="rJZmdnFMq_pad-13" r="33"/><path id="rJZmdnFMq_pad-14" d="M-63-63H63V63H-63z"/><circle id="rJZmdnFMq_pad-15" r="25.1"/><path id="rJZmdnFMq_pad-16" d="M-44.3-44.3h88.6v88.6h-88.6z"/><circle id="rJZmdnFMq_pad-19" r="15.85"/><circle id="rJZmdnFMq_pad-21" r="17.8"/><path id="rJZmdnFMq_pad-22" d="M-17.8-17.8h35.6v35.6h-35.6z"/><path id="rJZmdnFMq_pad-12" d="M37 15.326L15.326 37h-30.652L-37 15.326v-30.652L-15.326-37h30.652L37-15.326z"/><circle id="rJZmdnFMq_pad-13" r="33"/><path id="rJZmdnFMq_pad-14" d="M-63-63H63V63H-63z"/><circle id="rJZmdnFMq_pad-15" r="25.1"/><path id="rJZmdnFMq_pad-16" d="M-44.3-44.3h88.6v88.6h-88.6z"/><circle id="rJZmdnFMq_pad-19" r="15.85"/><circle id="rJZmdnFMq_pad-21" r="17.8"/><path id="rJZmdnFMq_pad-22" d="M-17.8-17.8h35.6v35.6h-35.6z"/><path id="B1zQd3YM5_pad-15" d="M-427.15-220.45h854.3v440.9h-854.3z"/><path id="rJZmdnFMq_pad-12" d="M37 15.326L15.326 37h-30.652L-37 15.326v-30.652L-15.326-37h30.652L37-15.326z"/><circle id="rJZmdnFMq_pad-13" r="33"/><path id="rJZmdnFMq_pad-14" d="M-63-63H63V63H-63z"/><circle id="rJZmdnFMq_pad-15" r="25.1"/><path id="rJZmdnFMq_pad-16" d="M-44.3-44.3h88.6v88.6h-88.6z"/><circle id="rJZmdnFMq_pad-19" r="15.85"/><circle id="rJZmdnFMq_pad-21" r="17.8"/><path id="rJZmdnFMq_pad-22" d="M-17.8-17.8h35.6v35.6h-35.6z"/><path id="rJZmdnFMq_pad-12" d="M37 15.326L15.326 37h-30.652L-37 15.326v-30.652L-15.326-37h30.652L37-15.326z"/><circle id="rJZmdnFMq_pad-13" r="33"/><path id="rJZmdnFMq_pad-14" d="M-63-63H63V63H-63z"/><circle id="rJZmdnFMq_pad-15" r="25.1"/><path id="rJZmdnFMq_pad-16" d="M-44.3-44.3h88.6v88.6h-88.6z"/><circle id="rJZmdnFMq_pad-19" r="15.85"/><circle id="rJZmdnFMq_pad-21" r="17.8"/><path id="rJZmdnFMq_pad-22" d="M-17.8-17.8h35.6v35.6h-35.6z"/><path id="B1zQd3YM5_pad-15" d="M-427.15-220.45h854.3v440.9h-854.3z"/><path id="Hyl4_nYz9_pad-12" d="M39 16.154L16.154 39h-32.308L-39 16.154v-32.308L-16.154-39h32.308L39-16.154z"/><circle id="Hyl4_nYz9_pad-13" r="35"/><path id="Hyl4_nYz9_pad-14" d="M-65-65H65V65H-65z"/><circle id="Hyl4_nYz9_pad-15" r="27.1"/><path id="Hyl4_nYz9_pad-16" d="M-46.3-46.3h92.6v92.6h-92.6z"/><circle id="Hyl4_nYz9_pad-18" r="25.6"/><circle id="rJvNd3tMc_pad-1" r="9.85"/><circle id="rJvNd3tMc_pad-2" r="11.8"/><circle id="rJvNd3tMc_pad-3" r="16.75"/><circle id="rJvNd3tMc_pad-4" r="20"/><circle id="rJvNd3tMc_pad-5" r="21.65"/><circle id="rJvNd3tMc_pad-6" r="23.6"/><circle id="rJvNd3tMc_pad-7" r="29.55"/><circle id="rJvNd3tMc_pad-8" r="39.35"/><g id="SymO2Kf5_bottom_cu"><path fill="none" stroke-width="8" d="M168.7 1642.4h3799.2"/><path fill="none" stroke-width="7.9" d="M296.7 102.3l2.3 6.3 2 6.5 1.6 6.6 1.3 6.6.8 6.7.5 6.7.1 6.8-.3 6.7-.7 6.8-1.1 6.6-1.4 6.6-1.8 6.6-2.2 6.3-2.6 6.3-2.9 6.1-3.2 5.9-3.6 5.8-3.9 5.5-4.2 5.3-4.6 5-4.7 4.8-5.1 4.5-5.3 4.1-5.5 3.9-5.8 3.6-5.9 3.2-6.1 2.9-6.3 2.5-6.4 2.2-6.5 1.8-6.6 1.4-6.7 1.1-6.7.6-6.8.3-6.7-.1-6.8-.5-6.7-.9m.5 1.1v1377.9M1212 303.8l708.3 134.4m.8-.6l1 6.7 1.5 6.6 1.8 6.6 2.2 6.4 2.6 6.2 2.9 6.2 3.2 5.9 3.6 5.7 3.9 5.6 4.3 5.3 4.5 5 4.8 4.8 5 4.5 5.4 4.2 5.5 3.9 5.8 3.5 5.9 3.3 6.1 2.9 6.3 2.5 6.4 2.1 6.6 1.8 6.6 1.4 6.7 1.1 6.7.6 6.8.3 6.8-.1 6.7-.5 6.7-.9 6.7-1.3 6.6-1.7 6.4-2 6.4-2.4 6.1-2.8 6.1-3.1 5.8-3.4 5.6-3.8 5.4-4.1 5.2-4.4 4.9-4.7 4.6-4.9 4.3-5.2 4-5.5 3.7-5.6 3.4-5.9 3-6.1 2.7-6.2 2.4-6.4 1.9-6.4 1.6-6.6 1.2-6.7.8-6.7m4.1 4.9l705.3-134.4V107h905.5m7.3 1.8l-2.1 6.4-1.6 6.4-1.3 6.6-1 6.6-.5 6.6-.2 6.7.2 6.6.6 6.7.9 6.6 1.3 6.5 1.7 6.4 2.1 6.4 2.4 6.2 2.8 6.1 3 5.9 3.5 5.7 3.7 5.5 4.1 5.3 4.3 5 4.6 4.8 4.9 4.6 5.1 4.2 5.4 4 5.6 3.6 5.8 3.3 5.9 3 6.1 2.6 6.3 2.3 6.4 2 6.5 1.5 6.5 1.2 6.6.9 6.7.4 6.6.1 6.7-.3 6.6-.7 6.6-1.1m-2.3 1.1v748h59v629.9M1212 303.8V107H306.5"/><use x="3700.6" y="754.2" xlink:href="#rJZmdnFMq_pad-12"/><use x="3800.6" y="754.2" xlink:href="#rJZmdnFMq_pad-12"/><use x="3800.6" y="854.2" xlink:href="#rJZmdnFMq_pad-12"/><use x="3700.6" y="854.2" xlink:href="#rJZmdnFMq_pad-12"/><use x="3700.6" y="954.2" xlink:href="#rJZmdnFMq_pad-12"/><use x="3800.6" y="954.2" xlink:href="#rJZmdnFMq_pad-12"/><use x="2967.1" y="1110.9" xlink:href="#rJZmdnFMq_pad-13"/><use x="2868.7" y="1110.9" xlink:href="#rJZmdnFMq_pad-13"/><use x="2770.3" y="1110.9" xlink:href="#rJZmdnFMq_pad-13"/><use x="1302.6" y="1110.9" xlink:href="#rJZmdnFMq_pad-13"/><use x="1204.1" y="1110.9" xlink:href="#rJZmdnFMq_pad-13"/><use x="1105.7" y="1110.9" xlink:href="#rJZmdnFMq_pad-13"/><use x="1027" y="1386.5" xlink:href="#rJZmdnFMq_pad-14"/><use x="1381.3" y="1386.5" xlink:href="#rJZmdnFMq_pad-14"/><use x="2691.5" y="1386.5" xlink:href="#rJZmdnFMq_pad-14"/><use x="3045.9" y="1386.5" xlink:href="#rJZmdnFMq_pad-14"/><use x="3006.3" y="282.3" xlink:href="#rJZmdnFMq_pad-15"/><use x="3197.2" y="282.3" xlink:href="#rJZmdnFMq_pad-15"/><use x="3242.5" y="164.2" xlink:href="#rJZmdnFMq_pad-16"/><use x="2961" y="164.2" xlink:href="#rJZmdnFMq_pad-16"/><path fill="none" d="M952.2 209.4l.2 3 .6 3 .9 2.9 1.3 2.7 1.7 2.5 1.9 2.3 2.3 2.1 2.5 1.7 2.6 1.4 2.9 1 2.9.7 3 .3 3.1-.1 3-.5 2.9-.9 2.7-1.2 2.6-1.5 2.4-1.9 2.1-2.2 1.8-2.4 1.5-2.7 1.1-2.8.8-2.9.4-3v-3l-.4-3-.8-2.9-1.1-2.8-1.5-2.7-1.8-2.4-2.1-2.2-2.4-1.9-2.6-1.5-2.7-1.2-2.9-.9-3-.5-3.1-.1-3 .3-2.9.7-2.9 1-2.6 1.4-2.5 1.7-2.3 2.1-1.9 2.3-1.7 2.5-1.3 2.7-.9 2.9-.6 3-.2 3m0 236.2l.2 3 .6 3 .9 2.9 1.3 2.7 1.7 2.5 1.9 2.3 2.3 2.1 2.5 1.7 2.6 1.4 2.9 1 2.9.7 3 .3 3.1-.1 3-.5 2.9-.9 2.7-1.2 2.6-1.5 2.4-1.9 2.1-2.2 1.8-2.4 1.5-2.7 1.1-2.8.8-2.9.4-3v-3l-.4-3-.8-2.9-1.1-2.8-1.5-2.7-1.8-2.4-2.1-2.2-2.4-1.9-2.6-1.5-2.7-1.2-2.9-.9-3-.5-3.1-.1-3 .3-2.9.7-2.9 1-2.6 1.4-2.5 1.7-2.3 2.1-1.9 2.3-1.7 2.5-1.3 2.7-.9 2.9-.6 3-.2 3"/><path fill="none" stroke-width="16" d="M934.2 440.3H190.6m0-15.8h748.9m1-2.5l11.7-11.7 15.3-6.4h16.6l15.3 6.4 11.7 11.7 6.3 15.3v16.6l-6.3 15.2-11.7 11.8-15.3 6.3h-16.6l-15.3-6.3-11.7-11.8-6.3-15.2v-16.6l6.3-15.3m15.7-13.4H190.6m0-15.8h923.8m.6-1.5l8.4-8.4 10.9-4.5h11.9l11 4.5 6.3 6.3h34.6l30 30h264.2l2-.8h11.9l11 4.5 8.4 8.4 4.5 11v11.9l-4.5 11-8.4 8.3-11 4.6h-11.9l-10.9-4.6-8.4-8.3-3.3-8h-259.3l-11.1-11.1-18.9-18.9h-18.9l-6.3 6.3-11 4.6h-11.9l-10.9-4.6-8.4-8.3-4.6-11v-11.9l4.6-11m-4.6 17.3h-115m16.7 15.9h102.6m80.8 15.8h-178.1m-1 15.9h195m6.1-47.6h429.1m-83.5-15.8h-361.4m10.3-49.6v-17l-2.1-.4h-7l-1.6-1.7-2.3-.4-4-5.8-4.9-5v-2.3l-1.3-1.9 1.3-6.9V128.9H326.3l2.2 27.5-9.3 41.6-21.3 37-31.3 29-38.5 18.4-37.5 5.4v1332.6H3946v-586h-46.2l-12.9-12.8V288l-34.1-3.8-38.6-16.9-31.9-27.5-22.4-35.7-10.8-40.6 1.3-34.6h-449.6v85.4l-8.2 8.2h-100.2l-8.2-8.2v-85.4h-164.9v85.4l-8.2 8.2h-100.2l-8.2-8.2v-85.4h-15.2v172.9l1.3 6.9-1.3 1.9v2.3l-5 5-3.9 5.8-2.3.4-1.7 1.7h-7l-2 .4v17h-89.5L2176 457.6v.5l-18.6 42-31 33.9-40.2 22.2-45.2 8.3-45.4-6.6-41-20.7-32.2-32.7-20.1-41.3-.8-6.2-599.7-113.8H1212m0-13.8H190.6m0 15.8h1122m83.5 15.9H190.6m0 15.8h1289m39.1 47.6h211.5m83.5 15.8h-284.4m0 15.9h367.9m9.4 15.8h-387.9m-36.8 0h-473.7m-64.8 0H190.6m0-15.8h744.5m-57.9 136.7l-11-4.5h-11.9l-10.9 4.5-6.3 6.3H663.5l-6.3-6.3-11-4.5h-11.9l-10.9 4.5-8.4 8.4-4.6 11v11.9l4.6 11 8.4 8.3 10.9 4.6h11.9l11-4.6 6.3-6.3h173.6l6.3 6.3 10.9 4.6h11.9l11-4.6 8.4-8.3 4.5-11v-11.9l-4.5-11-8.4-8.4m5.9 5.9h439.7m15.9-15.8H190.6m0 15.8h426.9m-7.1 15.9H190.6m0 15.8h422.5m17.2 15.9H190.6m0 15.8h1073.2m0-4.3l77.5-77.5 11.1-11.2h440l18-18v-8.9l4.6-11 8.4-8.4 10.9-4.5h11.9l11 4.5 8.4 8.4 4.5 11v11.9l-4.5 11-8.4 8.3-11 4.6h-8.9l-29.2 29.1h-96.6l4.1 4.1 4.5 11v11.9l-4.5 11-6.3 6.3V745l6.3 6.3 4.5 11v11.9l-4.5 11-8.4 8.3-11 4.6h-11.9l-10.9-4.6-8.4-8.3-4.6-11v-11.9l4.6-11 6.3-6.3v-93.5l-6.3-6.3-4.6-11v-11.9l4.6-11 4.1-4.1h-301l-66.3 66.4v43.9l6.3 6.3 4.5 11v11.9l-4.5 11-8.4 8.3-11 4.6h-11.9l-10.9-4.6-8.4-8.3-4.6-11v-11.9l4.6-11 6.3-6.3v-59.6m11.5-11.5h-405m-20 0h-200m12.8-47.6h174.4m52.6 15.9H1307m-15.9 15.8H887.5m310.6 128.7l50 50h524.3l148.9-148.8 11.1-11.2h180l68.9-68.8 11.1-11.2h114.7l6.3-6.3 10.9-4.5h11.9l11 4.5 8.4 8.4 4.5 11v11.9l-4.5 11-8.4 8.3-11 4.6h-11.9l-10.9-4.6-6.3-6.3h-99l-80 80h-180l-148.8 148.9v285.3l-36.8 36.8v28.6h10.1l8.2 8.2v47.2l-8.2 8.2h-47.2l-8.2-8.2V1195l7.3-7.3v-45.3l36.8-36.7V847.2h-528.9l-11.1-11.1-38.9-38.9H453.5l-6.3 6.3-11 4.6h-11.9l-10.9-4.6-8.4-8.3-4.6-11v-11.9l4.6-11 8.4-8.4 10.9-4.5h11.9l11 4.5 6.3 6.3h744.6m14 14h448.3m2.1-15.9h-354.3m4.4-15.8h358.7m0-15.9h-362.5m-7-15.8h369.5m0-15.9h-369.5m0-15.8h369.5m0-15.9h-358.2m15.9-15.8h337.2m-5.8-15.9h-315.6m15.9-15.8h302.9m53.4 0h430m15.8-15.9h-346.3m15.9-15.8h346.3m22 31.7h115.5m28.2 0h1542.5m0 15.8H2184.8m-15.8 15.9h1717.9m0 15.8H2153.1m-15.8 15.9h1338.4m-1.1 1.1l6.3-6.3 10.9-4.5h11.9l11 4.5 8.4 8.4 4.5 11v11.9l-4.5 11-8.4 8.3-11 4.6h-11.9l-10.9-4.6-6.3-6.3h-96.5l-12 12h287.3l26.1-26h42.2l28.9 28.9 28.9-28.9h42.2l29.9 29.9v42.3l-28.9 28.8 28.9 28.9v24.6l14 14 11.2 11.2V1205l6.3 6.3 4.5 11v11.9l-4.5 11-8.4 8.3-11 4.6h-11.9l-10.9-4.6-8.4-8.3-4.6-11v-11.9l4.6-11 6.3-6.3V988.2l-17.1 17h-2.4v10.9l-11.2 11.1-20 20h-375.7l-11.1-11.1v-8.5l-319.4 5.4.5.5 23.6 15.7h1.1l6.3-6.3 10.9-4.5h11.9l11 4.5 8.4 8.4 4.5 11v11.9l-4.5 11-8.4 8.3-11 4.6h-11.9l-10.9-4.6-6.3-6.3h-4.9l-5.9 1.2-1.8-1.2h-2.1l-4.2-4.2-23.7-15.8h-80l9.2 3.9 13.3 13.2 7.1 17.3v18.7l-7.1 17.2-13.3 13.3-17.2 7.1h-18.7l-17.3-7.1-13.2-13.3-7.2-17.2v-18.7l7.2-17.3 13.2-13.2 9.3-3.9h-63.7l9.2 3.9 13.2 13.2 7.2 17.3v18.7l-7.2 17.2-13.2 13.3-17.3 7.1h-18.6l-17.3-7.1-13.2-13.3-7.2-17.2v-18.7l7.2-17.3 13.2-13.2 9.2-3.9h-54.4l.1.1 6.5 4.7 5.7 5.7 4.7 6.5 3.6 7.1 2.5 7.7 1.3 7.9v1.2h-48.2v5.7h-5.7v48.1h-1.1l-8-1.2-7.6-2.5-7.2-3.7-6.4-4.7-5.7-5.7-4.7-6.4h-943.8m15.9-15.8h921.6m.1 1l-1.2-8v-1.1h48.1v-5.7h-48.1v-1.2l1.2-7.9 2.5-7.7 3.7-7.1 4.7-6.5 5.7-5.7 6.4-4.7.2-.1h-376.9l-1.2 3-8.4 8.3-11 4.6h-11.9l-10.9-4.6-8.4-8.3-4.6-11v-11.9l4.6-11 8.4-8.4 10.9-4.5h11.9l11 4.5 1.3 1.3h444l-2.1-5v-11.9l4.6-11 8.4-8.4 10.9-4.5h11.9l11 4.5 5.9 6 64.5-1.1-2.6-2.6-4.6-11v-11.9l4.6-11 8.4-8.4 10.9-4.5h11.9l11 4.5 6.3 6.3h278.9l108.9-108.8 11.1-11.2h287.2v-6.1l28.9-28.9-28.9-28.8v-8.2h-298.1l4.1 4.1 4.5 11v11.9l-4.5 11-8.4 8.3-11 4.6h-8.9l-9.2 9.1h-460l-20 20h-24.6l-6.3 6.3-11 4.6h-11.9l-10.9-4.6-8.4-8.3-4.6-11v-11.9l4.6-11 8.4-8.4 10.9-4.5h11.9l11 4.5 6.3 6.3h8.9l8.9-8.8 11.1-11.2h458v-6.9l4.6-11 4.1-4.1h-345.6l-6.3 6.3-11 4.6h-11.9l-10.9-4.6-6.3-6.3h-43.6l-6.3 6.3-11 4.6h-11.9l-10.9-4.6-8.4-8.3-4.6-11v-11.9l2.1-5.1h-120.1l-10-10h-8.9l-6.3 6.3-11 4.6h-11.9l-10.9-4.6-8.4-8.3-4.6-11v-11.9l4.6-11 8.4-8.4 10.9-4.5h11.9l11 4.5 6.3 6.3h34.6l10 10h614.3l20-20h112.2m45.2-1.1h367.1m0 15.8h-359.3m-2.3 15.9h147.6m-15.9 15.8h-147.4m-23.7 0h-116.2m-22-31.7h-624.9m-88.9 0h-415.7m-1-1l8.4 8.4 4.5 11v11.9l-4.5 11-6.3 6.3h601.5m.9 15.8h-602.4m0-15.8v137.7h139.8l-4.1-4-4.6-11v-11.9l4.6-11 8.4-8.4 10.9-4.5h11.9l11 4.5 6.3 6.3h233.6l6.3-6.3 10.9-4.5h11.9l11 4.5 8.4 8.4 4.5 11v11.9l-1.4 3.4 4.7-4.7 10.9-4.5h11.9l11 4.5 8.4 8.4 4.5 11v11.9l-4.5 11-8.4 8.3-11 4.6h-11.9l-2-.9h-509.9l-11.1-11.1V741.5h-287.4m15.8-15.9H2171m-.6-1.4v-11.9l4.6-11 8.4-8.4 10.9-4.5h11.9l11 4.5m11.9 16.9h401.3m5.1 15.8h-406m-48.2 15.9l-6.3-6.3-4.6-11m1.1-14.4h-245.9m15.8-15.9h241m-1.1 63.4H1878m-15.8 15.9h319.1m0 15.8h-335m-15.8 15.9h350.8m0 15.8h-366.7m-15.3 15.9h382m0 15.8h-382m0 15.9h382m0 15.8h-382m0 15.9h382m9.7 15.8h-391.7m0 15.9H3270m15.8-15.9h-564.2m16.1-15.8h564m15.8-15.9h-577.4m-7.6-15.8h600.9m15.8-15.9h-540.9m-36 0h-82.2m-9.3-15.8h80.6m-.3-15.9h-541.8m0-15.8h552.1m37.7 0h17.7m6.2-31.7h-613.7m0 15.8h1081.1m3.8-15.8h-346.7m-34.5 0h-55.5m-18.7 63.4h800.8m12.3-15.9h-337.3m31.1-15.8h322.1m-14.5-15.9h-303.2m-3.8-15.8h293.3m94.5-47.6h12.9m15.9-15.8h-44.6m100 0h58.6m0 15.8h-42.8m7.5 15.9h35.3m0 15.8h-35.3m0 15.9h35.3m0 15.8h-49m-14.5 15.9h63.5m0 15.8h-47.7m12.4 15.9h35.3m0 15.8h-35.3m10.6 15.9h24.7m0 15.8h-10.1m0 15.9h10.1m0 15.8h-10.1m0 15.9h10.1m0 15.8h-10.1m0 15.9h10.1m0 15.8h-10.1m0 15.9h10.1m0 15.8h-10.1m0 15.9h15.3m-15.3 15.8h69.2m0 15.9h-69.2m0 15.8h69.2m0 15.9h-69.2m0 15.8h69.2m0 15.9h-69.2m0 15.8h69.2m0 15.9h-69.2m0 15.8h69.2m0 15.9h-69.2m0 15.8h69.2m0 15.9h-60.6m2.2 15.8h58.4m0 15.9h-66.5m-43.5 0h-221.7m0 15.8H3946m0 15.9h-331.7m0 12.1l6.3 6.3 4.5 11v11.9l-4.5 11-8.4 8.3-11 4.6h-11.9l-10.9-4.6-8.4-8.3-4.6-11v-11.9l4.6-11 6.3-6.3v-191l-6.3-6.3-4.6-11v-11.9l4.6-11 8.4-8.4 10.9-4.5h11.9l11 4.5 8.4 8.4 4.5 11v11.9l-4.5 11-6.3 6.3v191m3.7 3.8h328m0 15.8h-320.9m-2.6 15.9H3946m0 15.8h-340.5m-20.5 0h-75.9m-1-2.5l4.5 11v11.9l-4.5 11-8.4 8.3-11 4.6h-11.9l-10.9-4.6-8.4-8.3-4.6-11v-11.9l4.6-11 6.3-6.3v-201.3l-.4-.2-8.4-8.3-4.6-11v-11.9l4.6-11 8.4-8.4 10.9-4.5h11.9l11 4.5 8.4 8.4 4.5 11v11.9l-4.5 11-3.8 3.8v206l6.3 6.3m-6.3-13.3h66.2m-2.6-15.9h-63.6m0-15.8h19.3m-1.1-1.1l-4.6-11v-11.9l4.6-11 6.3-6.3v-103.5l-6.3-6.3-4.6-11v-11.9l4.6-11 8.4-8.4 10.9-4.5h11.9l11 4.5 8.4 8.4 4.5 11v11.9l-4.5 11-6.3 6.3V1255l6.3 6.3 4.5 11v11.9l-4.5 11-8.4 8.3-11 4.6h-11.9l-10.9-4.6-8.4-8.3m-4.6-14.8h-13.6m0-15.9h16.8m7.7-15.8h-24.5m0-15.9h24.5m0-15.8h-24.5m0-15.9h24.5m0-15.8h-24.5m0-15.9h24.5m0-15.8h-24.5m0-15.9h15.1m-1.3-15.8h-8.7m3.2-15.9h15.2m-20.9-15.8h63.5m-2.5-15.9h-316.8m-1.4-1.4l8.4 8.4 4.5 11v11.9l-4.5 11-6.3 6.3V1485l6.3 6.3 4.5 11H3946m0-15.8h-695.3m-1.4-15.9H3946m0-15.8h-696.7m0-15.9H3946m0-15.8h-696.7m0-15.9H3946m0-15.8h-696.7m0-15.9h208.5m-4.9-15.8h-203.6m0-15.9h207.2m7.3-15.8h-214.5m0-15.9h214.5m0-15.8h-214.5m0-15.9h214.5m0-15.9h-214.5m0-15.8h214.5m0-15.9h-214.5m0-15.8h214.5m0-15.9h-214.5m0-15.8h214.5m0-15.9h-214.5m0-15.8h214.5m0-15.9h-214.5m0-15.8h204.3m-3.2-15.9h-191.1m-.1-15.8h196.9m-48.3-47.6h-261.3m12 15.9h414.3m44.9 0h221.1m0 15.8h-213.7m-2.5 15.9h216.2m0 15.8h-224.5m0 15.9h224.5m0 15.8h-224.5m0 15.9h224.5m0 15.8h-224.5m0 15.9h224.5m0 15.8h-224.5m0 15.9h215.8m-2.2 15.8h-213.6m-38 0h-12m0-15.8h12m0-15.9h-12m0-15.8h12m0-15.9h-12m0-15.8h12m0-15.9h-2.7m1.3-15.8h1.4m0-15.9h-11m112.5-96.8l-32.2-32.2v-20.8h53v-4h-53v-20.7l30-30.1-24.1-24.2h-273.4l-108.8 108.9-5.8 5.8 148.8-2.5.1-.2h7.7l7.7-.1.2.1h.1l5.5 5.5 5.5 5.4v.1l.2.2v8.8h333.1l5.5-5.5-24.5-24.5-30 30h-20.8v-53h-4v53h-20.8m-14.1-14.1H3434m-94.5-79.3h321.7m13-15.8h-318.8m15.8-15.9h287.2m-12.8 47.6h-321.9m-15.9 15.8h337.8m0 15.9H3292m-15.9 15.8h371.7m50.8 0h4m0-15.8h-4m0 31.7h4m34.9 0h31.8m-15.9-15.9h.1m65.8 31.7h19.5m0-15.8h-7m7 31.7h-30.2m-15.9 15.8h46.1m-262.5 206.1h-12m7.6 15.8h4.4m-1.2 15.9h1.2m-3.7 15.9h-3.1m-56.9 63.4H3946m0 15.8h-438.3m-247.6 126.8v11.9l-4.5 11-8.4 8.3-11 4.6h-11.9l-10.9-4.6-8.4-8.3-4.6-11v-11.9l4.6-11 6.3-6.3v-363.5l-6.3-6.3-4.6-11v-11.9l4.6-11 8.4-8.4 10.9-4.5h11.9l11 4.5m-35.2 1.4h-52m-9.5 15.9h50.8m-.1 15.8h-187.1m-.6 15.9h197.8m0 15.8h-204.5m-19.9 15.9h224.4m0 15.8H1762.5m0 15.9h1448.8m0 15.8H1780.8m0 15.9h1430.5m0 15.8H1780.8m-6.5 15.9h1437m0 15.8h-2769m0-15.8h1281.4m-6.5-15.9H442.3m0-15.8h1274.9m0-15.9h-187.6m-2.4 2.4l8.4-8.3 4.5-11v-11.9l-4.5-11-8.4-8.4-11-4.5h-8.9l-139.2-139.2h-355.7l-11.1 11.2-58.9 58.8H493.5l-6.3-6.3-11-4.5h-11.9l-5.3 2.2 20.4-20.4h200.7l3.3 3.3 10.9 4.6h11.9l11-4.6 8.4-8.3 4.5-11v-11.9l-4.5-11-8.4-8.4-11-4.5h-11.9l-10.9 4.5-3.3 3.3h-49.4l6.5-2.7 8.4-8.3 4.5-11v-11.9l-4.5-11-8.4-8.4-11-4.5h-11.9l-10.9 4.5-6.3 6.3H473.5l-6.3-6.3-11-4.5h-11.9l-10.9 4.5-8.4 8.4-4.6 11v11.9l4.6 11 8.4 8.3 10.9 4.6h11.9l11-4.6 6.3-6.3h123.6l6.3 6.3 6.5 2.7H461.2l-50 50-12.9 12.9v327.3h-1.6l-8.2 8.2v47.3l8.2 8.2h47.2l8.2-8.2v-47.3l-8.2-8.2h-1.6v-287.8l2.7 6.6 8.4 8.3 10.9 4.6h11.9l11-4.6 6.3-6.3h464.6l70-70h324.3l128 128.1v8.9l4.6 11 8.4 8.3 10.9 4.6h11.9l11-4.6m12.5-18.2h184.8m0-15.9h-185.6m-11.1-15.8h196.7m4.7-15.9h-232.6m-15.8-15.8H1745m15.9-15.9h-296m-15.8-15.8h312.2m0-15.9h-328.1m-15.8-15.8h343.9m0-15.9h-190.5m3.9-1.6l-11 4.6h-11.9l-10.9-4.6-8.4-8.3-4.6-11v-8.9l-115.5-115.6H873.5l-6.3 6.3-11 4.6h-11.9l-10.9-4.6-8.4-8.3-4.6-11v-11.9l4.6-11 8.4-8.4 10.9-4.5h11.9l11 4.5 6.3 6.3h554.6l126.7 126.7h8.9l11 4.5 8.4 8.4 4.5 11v11.9l-4.5 11-8.4 8.3m10.8-14.2h175.8m0-15.9h-173.7m-8.3-15.8h182m0-15.9h-213.2m-15.8-15.8h229m0-15.9h-244.9m-15.8-15.8h260.7m0-15.9h-276.6m-15.8-15.8h292.4m0-15.9H1453m-15.8-15.8h324.1m0-15.9H866m-31.4 0h-644m0-15.8h1031.2m-15.9-15.9H190.6m0-15.8h226M402.4 789H190.6m0-15.8h209.8m8.6-15.9H190.6m0-15.8h1062.3m3.8-15.9H190.6m0-15.8h1073.2m0-15.9H190.6m0-15.8h1073.2m-6.4 79.2H451.6m-7.7 47.6h746.2m37.8-15.9h441m42.8 0h80.9m15.9-15.8h-88.4m-2-15.9h106.2m15.9-15.8h-130.9m0-15.9H1856m15.9-15.8h-162.6m0-15.9h178.4m15.9-15.8h-194.3m0-15.9h210.1m-55.8-95.1h445.6m42.2 0h1535.5m0-15.8H2095.1m28.6-15.9h1763.2m0-15.8H2139.5m14.6-15.9h1732.8m0-15.8H2162.8M2169.8 472h1717.1m0-15.8H2183.3M2266.4 440.3h1620.5m0-15.8H2349.6m83.2-15.9h1454.1m0-15.8h-1371m83.2-15.9h1287.8m0-15.8H2682.3m83.1-15.9h1121.5m0-15.8H2865.6m21.3-15.9h95.4m1.9 1.9l-11-10.9-6-14.4v-15.6l6-14.3 11-11 14.3-6h15.6l14.3 6 11 11 6 14.3v15.6l-6 14.4-11 10.9-14.3 6h-15.6l-14.3-6m-13.8-17.7h-82.9m0-15.9h79.7m3.5-15.8h-83.2m0-15.9h95.7m32-31.7h173.2m-4.2-15.8h-164.9m0-15.9h164.9m0-15.8h-164.9m0-15.9h164.9m0-15.8h-164.9m-116.6 0h-15.2m0 15.8h15.2m0 15.9h-15.2m0 15.8h15.2m0 15.9h-15.2m0 15.8h19.4m-19.4 15.9h891.3m15.5 15.8h-573.9m-1-.9l11 11 5.9 14.3v15.6l-5.9 14.4-11 10.9-14.4 6h-15.5l-14.4-6-11-10.9-6-14.4v-15.6l6-14.3 11-11 14.4-6h15.5l14.4 6m13.4 16.8h579.9m34.8 15.8h-611.2m-3.1 15.9h653.7m0 15.8h-665.6m-48.1 0h-142.9m11.9-15.8h119.1m-3.2-15.9h-112.7m-3.5-15.8h119.8m12.4-15.9h-144.7m267.2-31.7h472.3m-9.4-15.8h-458.7m0-15.9h454.5m-4.3-15.8h-450.2m0-15.9h448.6m.6-15.8h-449.2M3886.9 583H2360.1m-1.9 15.8h1528.7m-632.8 348.7H1799.3m0 15.9h1114.8m-3.7 15.8H1799.3m0 15.9h1011.9m-10.2 15.8H1799.3m0 15.9h526.8m-13.7 15.8h-513.1m0 15.9h511.1m8.8 15.8h-519.9m0 15.9h924.3m-4.2 15.8h-920.1m-32.2 47.6h975.1m-15.5-15.9l-3.7-7.2-2.5-7.6m46.9-1h5.7m0-8.1v48.1h1.2l7.9-1.2 7.7-2.5 7.1-3.7 6.5-4.7 5.7-5.7 4.7-6.4 3.6-7.2 2.5-7.6 1.3-8v-1.1h-48.2m0 23.9h-5.7m0 15.9h5.7m25.2 0h50.6m-19.8-15.9h-15.3m6.4-15.8h2.2m-1.3-15.9h.6m-4.7-15.8h9.4m12.4-15.9h-33m-4.3-47.5h-447.1m7 47.5h373.3m114.6-79.2h65.7m-16.4 79.2h38.6m-12.4 15.9H2911m4.7 15.8h4.4m.7 15.9h-5.8m-6.7 15.8h19.2m19.8 15.9h-58.8m120.9-63.4H3110m-34.8-15.9H2997m99.1-31.7h18m97.2 237.8h-2769m0 15.9h2769m0 15.8h-94.1m-2.5-2.6l8.2 8.2v137.6l-8.2 8.2h-137.6l-8.2-8.2v-137.6l8.2-8.2h137.6m8.2 18.5h88.4m0 15.8h-88.4m0 15.9h88.4m0 15.8h-88.4m0 15.9h88.4m0 15.8h-88.4m0 15.9h88.4m0 15.8h-88.4m0 15.9h88.4m0 15.8H190.6m0-15.8h200.8m-2.9-15.9H190.6m0-15.8h197.9m0-15.9H190.6m0-15.8h207.7m0-15.9H190.6m0-15.8h207.7m0-15.9H190.6m0-15.8h207.7m0-15.9H190.6m0-15.8h207.7m0-15.9H190.6m0-15.9h207.7m0-15.8H190.6m0-15.9h207.7m0-15.8H190.6m0-15.9h207.7m0-15.8H190.6m0-15.9h207.7m0-15.8H190.6m0-15.9h207.7m0-15.8H190.6m0-15.9h207.7m0-15.8H190.6m0-15.9h207.7m10.6-15.8H190.6m0-15.9h234.2m15.8-15.8h-250m0-15.9h265.9m13.8 17.3l-50 50v350m31.8-5.1H950m0 15.8H452.1m-2.9 15.9H950m0 .5v-137.6l8.2-8.2h137.6l8.2 8.2v137.6l-8.2 8.2H958.2l-8.2-8.2m0-48.1H452.1m-9.8-15.8H950m0-15.9H442.3m0-15.8H950m0-15.9H442.3m0-15.8H950m5.6-15.9H442.3m0-111H1491m-10.1-15.8H442.3m0-15.9h1032.3m-15.8-15.8h-136.4m6.8-2.8l-17.3 7.1h-18.7l-17.3-7.1-13.2-13.3-7.1-17.2v-18.7l7.1-17.3 13.2-13.2 17.3-7.2h18.7l17.3 7.2 13.2 13.2 7.2 17.3v18.7l-7.2 17.2-13.2 13.3m13-13.1h100.7m-15.8-15.8h-78.2m.7-15.9h61.6m-15.8-15.8h-50.6m-12.3-15.9h47m-15.8-15.8h-346.8m-15.9 15.8h69.2m2.3-2.3l6.5-4.7 7.1-3.6 7.7-2.5 7.9-1.3h1.2v48.2h5.6v-48.2h1.2l8 1.3 7.6 2.5 7.1 3.6 6.5 4.7 5.7 5.7 4.7 6.5 3.7 7.1 2.5 7.7 1.2 7.9v1.2h-48.2v5.7h-5.6v48.1h-1.2l-7.9-1.2-7.7-2.5-7.1-3.7-6.5-4.7-5.7-5.7-4.7-6.4-3.7-7.2-2.4-7.6-1.3-8v-1.1h48.2v-5.7h-48.2v-1.2l1.3-7.9 2.4-7.7 3.7-7.1 4.7-6.5 5.7-5.7m-13.5 18.2h-73.8m-15.9 15.8h85.5m1 15.9h-567m-37.1 0h-9.4m0 15.8h619.9m15.5 15.9H442.3m46.3-79.3h458.7m15.9-15.8H471.1m-.8-30.3h230m29.8-1.4h264.8m15.8-15.9H725.2m1.4 31.7H979m46-47.4l8.4 8.3 10.9 4.6h11.9l11-4.6 6.3-6.3h136.1l6.3 6.3 10.9 4.6h11.9l11-4.6 8.4-8.3 4.5-11v-11.9l-4.5-11-8.4-8.4-11-4.5h-11.9l-10.9 4.5-6.3 6.3h-136.1l-6.3-6.3-11-4.5h-11.9l-10.9 4.5-8.4 8.4-4.6 11v11.9l4.6 11m0-.1H645.6m4.5-15.9h370.3m3.7-15.8H646.4m174-79.3H190.6m0-15.8h631.5m7.7 31.7H190.6m0 15.8H1431m-15.8-15.8H870.7m232.2 174.3h5.6m0 15.9h-5.6m0 15.8h5.6m0 7.8h48.2v1.1l-1.2 8-2.5 7.6-3.7 7.2-4.7 6.4-5.7 5.7-6.5 4.7-7.1 3.7-7.6 2.5-8 1.2h-1.2v-48.1m0 8.1h-5.6m0 15.8h5.6m0 15.9h-5.6m30.8 0h50.6m-6.8-2.8l17.3 7.1h18.7l17.3-7.1 13.2-13.3 7.1-17.2v-18.7l-7.1-17.3-13.2-13.2-17.3-7.2h-18.7l-17.3 7.2-13.2 13.2-7.2 17.3v18.7l7.2 17.2 13.2 13.3m-13-13.1h-15.2m6.3-15.8h2.2m-1.2-15.9h.5m-4.7-15.8h9.4m12.4-15.9h-32.9m92.7 0h38.7m-12.4 15.9h-13.9m4.7 15.8h4.5m.6 15.9h-5.7m-6.7 15.8h19.1m19.9 15.9h-58.9m161.8-126.8h144.4m-4-15.9h-156.3m31.7 31.7h143.2m-34.4-47.5h-252.2m4.5-15.9h231.8m-15.8-15.8h-219.7m188-31.7H190.6m0 15.8h1272.1m-218.9-142.6h533m-62.5-158.5h401m15.8-15.9h-411m74.4-63.4H190.6m0-15.8h1619.8m2.9-15.9H190.6m0-15.8h1640.9m17.6 0h88.2m-15.3-15.9H190.6m0-15.8h1723.7m38.6 47.5h-85.6m2.8 15.9h112.5M2219.3 836.6h140.4m-9.3 15.8h-131.1m0 15.9h132.8m48.7-31.7h238.9m-17 472.9l-8.2 8.2v137.6l8.2 8.2h137.6l8.2-8.2v-137.6l-8.2-8.2h-137.6m-2.5 2.6H1452.7m-2.6-2.6l8.2 8.2v137.6l-8.2 8.2h-137.6l-8.2-8.2v-137.6l8.2-8.2h137.6m8.2 18.5h1156.2m0 15.8H1458.3m0 15.9h1156.2m0 15.8h-746.3m-2.3-2.2l6.3 6.3h504.7l19.1 19.1h9l10.9 4.6 8.4 8.4 4.6 10.9v11.9l-4.6 11-8.4 8.4-10.9 4.5h-11.9l-11-4.5-8.4-8.4-4.5-11v-8.9l-8.1-8h-488.9l-6.3 6.3-10.9 4.5h-11.9l-11-4.5-8.4-8.4-4.5-11v-11.9l4.5-10.9 8.4-8.4 11-4.6h11.9l10.9 4.6m-36 2.2h-371.6m0 15.9h361.4m.6 15.8h-362m0 15.9h373m35.4 0h499.9m4.4 15.8h-912.7m0 15.9h926m29.5 0h200.7m0-15.9H2427m1.9-15.8h185.6m0-15.9h-194.6m-31.2-15.8h225.8m154 0h200.4m0 15.8h-200.4m0 15.9h200.4m0 15.8h-200.4m0 15.9h200.4m0-79.3h-200.4m0-15.8h200.4m0-15.9h-200.4m0-15.8h200.4m5.6-15.9h-211.6m437.5 190.2H190.6m0-15.8h3019.3m-7.8 31.7H190.6m0 15.8h3023.9m31.6 0H3946m0-15.8h-687.5m687.5 31.7H190.6m0 15.8H3946m0 15.9H190.6m0 15.8H3946m0 15.9H190.6m913.4-158.5h200.3m0-15.9H1104m0-15.8h200.3m0-15.9H1104m0-15.8h200.3m0-15.9H1104m0-15.8h200.3m0-15.9H1104m0-15.8h200.3m5.6-15.9h-211.6M425 995.1H190.6m0-15.9h229.8m3.7-15.8H190.6m0-649.9h1000.1m-.6-15.8H190.6m38.6-15.9h960.9m0-15.8H262.5m19.1-15.9h683.9m2 .9l-15.3-6.4-11.7-11.7-6.3-15.3v-16.5l6.3-15.3 11.7-11.7 15.3-6.4h16.6l15.3 6.4 11.7 11.7 6.3 15.3v16.5l-6.3 15.3-11.7 11.7-15.3 6.4h-16.6m18.6-.9h204m0-15.8h-180.4m7.4-15.9h173m0-15.8h-172.7m-5.9-15.9h178.6m0-15.8H991.7m-31.8 0H325.3m3.1-15.9h861.7m0-15.8h-863m-5.3 47.5h618.3m-5.9 15.9H316.6m-9.1 15.8h627m7.4 15.9H298.4m-.5.7"/><use x="280.3" y="438.2" xlink:href="#rJZmdnFMq_pad-19"/><use x="640.3" y="618.2" xlink:href="#rJZmdnFMq_pad-19"/><use x="770.3" y="728.2" xlink:href="#rJZmdnFMq_pad-19"/><use x="860.3" y="618.2" xlink:href="#rJZmdnFMq_pad-19"/><use x="1140.3" y="408.2" xlink:href="#rJZmdnFMq_pad-19"/><use x="1500.3" y="448.2" xlink:href="#rJZmdnFMq_pad-19"/><use x="1690.3" y="628.2" xlink:href="#rJZmdnFMq_pad-19"/><use x="1840.3" y="548.2" xlink:href="#rJZmdnFMq_pad-19"/><use x="2200.3" y="718.2" xlink:href="#rJZmdnFMq_pad-19"/><use x="2380.3" y="858.2" xlink:href="#rJZmdnFMq_pad-19"/><use x="2580.3" y="738.2" xlink:href="#rJZmdnFMq_pad-19"/><use x="2660.3" y="708.2" xlink:href="#rJZmdnFMq_pad-19"/><use x="2790.3" y="828.2" xlink:href="#rJZmdnFMq_pad-19"/><use x="2710.3" y="888.2" xlink:href="#rJZmdnFMq_pad-19"/><use x="2660.3" y="858.2" xlink:href="#rJZmdnFMq_pad-19"/><use x="2850.3" y="748.2" xlink:href="#rJZmdnFMq_pad-19"/><use x="2940.3" y="748.2" xlink:href="#rJZmdnFMq_pad-19"/><use x="3140.3" y="668.2" xlink:href="#rJZmdnFMq_pad-19"/><use x="3330.3" y="788.2" xlink:href="#rJZmdnFMq_pad-19"/><use x="3200.3" y="868.2" xlink:href="#rJZmdnFMq_pad-19"/><use x="2940.3" y="978.2" xlink:href="#rJZmdnFMq_pad-19"/><use x="2830.3" y="1018.2" xlink:href="#rJZmdnFMq_pad-19"/><use x="3130.3" y="1068.2" xlink:href="#rJZmdnFMq_pad-19"/><use x="3230.3" y="1098.2" xlink:href="#rJZmdnFMq_pad-19"/><use x="3480.3" y="1108.2" xlink:href="#rJZmdnFMq_pad-19"/><use x="3545.3" y="1128.2" xlink:href="#rJZmdnFMq_pad-19"/><use x="3595.3" y="1078.2" xlink:href="#rJZmdnFMq_pad-19"/><use x="3857.8" y="1228.2" xlink:href="#rJZmdnFMq_pad-19"/><use x="3595.3" y="1315.7" xlink:href="#rJZmdnFMq_pad-19"/><use x="3545.3" y="1278.2" xlink:href="#rJZmdnFMq_pad-19"/><use x="3482.8" y="1358.2" xlink:href="#rJZmdnFMq_pad-19"/><use x="3230.3" y="1508.2" xlink:href="#rJZmdnFMq_pad-19"/><use x="3790.3" y="1568.2" xlink:href="#rJZmdnFMq_pad-19"/><use x="2399" y="1428.6" xlink:href="#rJZmdnFMq_pad-19"/><use x="2109" y="1518.6" xlink:href="#rJZmdnFMq_pad-19"/><use x="1949" y="1438.6" xlink:href="#rJZmdnFMq_pad-19"/><use x="1849" y="1398.6" xlink:href="#rJZmdnFMq_pad-19"/><use x="1570.3" y="1180.7" xlink:href="#rJZmdnFMq_pad-19"/><use x="1510.3" y="1178.2" xlink:href="#rJZmdnFMq_pad-19"/><use x="1557.8" y="1015.7" xlink:href="#rJZmdnFMq_pad-19"/><use x="1232.8" y="978.2" xlink:href="#rJZmdnFMq_pad-19"/><use x="1050.3" y="978.2" xlink:href="#rJZmdnFMq_pad-19"/><use x="850.3" y="878.2" xlink:href="#rJZmdnFMq_pad-19"/><use x="700.3" y="1028.2" xlink:href="#rJZmdnFMq_pad-19"/><use x="620.3" y="978.2" xlink:href="#rJZmdnFMq_pad-19"/><use x="450.3" y="978.2" xlink:href="#rJZmdnFMq_pad-19"/><use x="470.3" y="1098.2" xlink:href="#rJZmdnFMq_pad-19"/><use x="520.3" y="1258.2" xlink:href="#rJZmdnFMq_pad-19"/><use x="790.3" y="1228.2" xlink:href="#rJZmdnFMq_pad-19"/><use x="430.3" y="778.2" xlink:href="#rJZmdnFMq_pad-19"/><use x="700.3" y="268.2" xlink:href="#rJZmdnFMq_pad-19"/><use x="1282.8" y="740.7" xlink:href="#rJZmdnFMq_pad-19"/><use x="1690.3" y="768.2" xlink:href="#rJZmdnFMq_pad-19"/><use x="1895.3" y="978.2" xlink:href="#rJZmdnFMq_pad-19"/><use x="2340.3" y="1053.2" xlink:href="#rJZmdnFMq_pad-19"/><use x="2330.3" y="588.2" xlink:href="#rJZmdnFMq_pad-19"/><use x="2790.3" y="558.2" xlink:href="#rJZmdnFMq_pad-19"/><use x="3252.6" y="354.8" xlink:href="#rJZmdnFMq_pad-19"/><use x="3497.8" y="698.2" xlink:href="#rJZmdnFMq_pad-19"/><path fill="none" stroke-width="10" d="M3497.8 698.2h-127.5l-20 20h-640v-10h-50m-80 20v10m80 120h-280m-180 40v-180m-80-50l80-80h130m-210 80h-180l-160 160v285.3l-36.8 36.8v62.8l5.5 5.5m-238.7-40.4l-150-150h-340l-70 70h-480m-20-120h170m230-100h570l137.5 137.5m222.5-187.5h-540l-50-50h-760m210-160h220m-90 80v30m280 250h182.5m50-237.5v-75l77.5-77.5h440l40-40m-150 80v140m205 172.5v37.5m305-80h500l10-10m80-60h40l20-20h460l20-20m40 70h326.3l4-4m100 0h20.7l36.5 36.5v337.5m-187.5-125v-25m-75 0v237.5m-50-37.5v-150m-62.5-17.5l-2.5-2.5m2.5 2.5v247.5m-252.5 150v-410m-100-30h-30l-30-20h-730v5m490-35l590-10v20h360l20-20v-53.7l.3-.3m-100-200l-6-6h-844.3m-60-190h-60m450 280l20 20v10m50 110l120-120m-120 120h-310m442.5-350l12.5-12.5m200-150h25m-322.5-90l-45.2-20.9M2369 1398.6h-520m268.5 92.4l12.8-12.8m-12.8 12.8l-8.5 27.6m260-120l30 30m1381.3 149.6l10-10m-2290-1120l-10-10h-270l-30-30h-50m-440-110v-30m-420 170v80m510 710l80 70m-350-40l-10 10"/><use x="3620.3" y="465.7" xlink:href="#rJZmdnFMq_pad-21"/><use x="3670.3" y="1078.2" xlink:href="#rJZmdnFMq_pad-21"/><use x="1749" y="1218.6" xlink:href="#rJZmdnFMq_pad-22"/><use x="420.3" y="1428.2" xlink:href="#rJZmdnFMq_pad-22"/></g><g id="SymO2Kf5_bottom_ss"><path fill="none" stroke-width="8" d="M168.7 1642.4h3799.2"/><path fill="none" stroke-width="7.9" d="M296.7 102.3l2.3 6.3 2 6.5 1.6 6.6 1.3 6.6.8 6.7.5 6.7.1 6.8-.3 6.7-.7 6.8-1.1 6.6-1.4 6.6-1.8 6.6-2.2 6.3-2.6 6.3-2.9 6.1-3.2 5.9-3.6 5.8-3.9 5.5-4.2 5.3-4.6 5-4.7 4.8-5.1 4.5-5.3 4.1-5.5 3.9-5.8 3.6-5.9 3.2-6.1 2.9-6.3 2.5-6.4 2.2-6.5 1.8-6.6 1.4-6.7 1.1-6.7.6-6.8.3-6.7-.1-6.8-.5-6.7-.9m.5 1.1v1377.9M1212 303.8l708.3 134.4m.8-.6l1 6.7 1.5 6.6 1.8 6.6 2.2 6.4 2.6 6.2 2.9 6.2 3.2 5.9 3.6 5.7 3.9 5.6 4.3 5.3 4.5 5 4.8 4.8 5 4.5 5.4 4.2 5.5 3.9 5.8 3.5 5.9 3.3 6.1 2.9 6.3 2.5 6.4 2.1 6.6 1.8 6.6 1.4 6.7 1.1 6.7.6 6.8.3 6.8-.1 6.7-.5 6.7-.9 6.7-1.3 6.6-1.7 6.4-2 6.4-2.4 6.1-2.8 6.1-3.1 5.8-3.4 5.6-3.8 5.4-4.1 5.2-4.4 4.9-4.7 4.6-4.9 4.3-5.2 4-5.5 3.7-5.6 3.4-5.9 3-6.1 2.7-6.2 2.4-6.4 1.9-6.4 1.6-6.6 1.2-6.7.8-6.7m4.1 4.9l705.3-134.4V107h905.5m7.3 1.8l-2.1 6.4-1.6 6.4-1.3 6.6-1 6.6-.5 6.6-.2 6.7.2 6.6.6 6.7.9 6.6 1.3 6.5 1.7 6.4 2.1 6.4 2.4 6.2 2.8 6.1 3 5.9 3.5 5.7 3.7 5.5 4.1 5.3 4.3 5 4.6 4.8 4.9 4.6 5.1 4.2 5.4 4 5.6 3.6 5.8 3.3 5.9 3 6.1 2.6 6.3 2.3 6.4 2 6.5 1.5 6.5 1.2 6.6.9 6.7.4 6.6.1 6.7-.3 6.6-.7 6.6-1.1m-2.3 1.1v748h59v629.9M1212 303.8V107H306.5"/><path fill="none" stroke-width="6" d="M1231.8 351.2l-4.6 21.8 4.3 6.6 16.3 3.4 7-32.6-16.4-3.5-6.6 4.3m36.6 2.1l-6.9 32.6m21.8 4.7l-14.9-37.3m21.8 4.6l-6.9 32.7m16-8l4.6-21.8m-3.5 16.3l21.8 4.7m-1.1 5.4l4.6-21.8m13.7 2.9l21.7 4.7-6.9 32.6m14.8-2.5l2.4-10.9 6.6-4.3 16.3 3.5m2.3-10.9l-6.9 32.7-16.4-3.5-4.3-6.6m14.4-14l-8.6-13.2m35.5 7.5l21.8 4.6-7 32.7-21.8-4.6m14.4-14l10.9 2.3m11.4 13.8l26.4-17.2 1.1-5.4-21.8-4.6m-5.7 27.2l-1.2 5.4 21.8 4.7m13.7 2.9l21.7 4.6m-10.9-2.3l7-32.7m23.6 5l10.9 2.3m-5.4-1.1l-7 32.7m-5.4-1.2l10.9 2.3m13.7 2.9l6.9-32.6 8.6 13.2 13.2-8.6-7 32.7m14.9-2.6l4.3 6.6 10.8 2.3 6.6-4.3 1.2-5.4-4.3-6.6-10.9-2.3-4.3-6.6 1.2-5.5 6.6-4.3 10.9 2.4 4.3 6.6m-9.3 52.7l-6.9 32.6m-13.7-2.9l5.8-27.2-4.3-6.6-10.9-2.3-6.6 4.3-5.8 27.2m-13.7-2.9l7-32.7m-3.5 16.4l-10.9-2.3m7.4 18.6l-21.7-4.6m-11.4-13.8l-13.2 8.6-8.6-13.3 4.6-21.7m-14.8 2.5l-4.3-6.6-10.9-2.3-6.6 4.3m-4.6 21.8l4.3 6.6 10.9 2.3 6.6-4.3 4.6-21.8m11.4 13.8l21.8 4.6m-1.2 5.5l4.6-21.8m-77.8 17.6l-21.8-4.6m10.9 2.3l6.9-32.7m-25.7.2l-5.8 27.3m-21.8-4.7l5.8-27.2 6.6-4.3 10.9 2.3 4.3 6.6m-34.3-13l-7 32.7-16.3-3.5-4.3-6.6 2.3-10.8 6.6-4.3 16.4 3.4m-10.9-2.3l-8.6-13.2m-13.7-2.9l-10.9-2.3m5.5 1.2l-7 32.6m-5.4-1.1l10.9 2.3m-23.7-5l-14.8-37.3-6.9 32.6m-12.6-8.3l4.7-21.8-4.3-6.6-10.9-2.3-6.6 4.3-2.3 10.9 10.9 2.3m8.5 13.2l-6.6 4.3-10.9-2.4-4.2-6.6m-14.5-25.8l1.1-5.4-5.4-1.2-1.2 5.4 5.5 1.2m-4.3-6.6l13.2-8.6m66.3-12.1l8.5 13.2 13.3-8.6m-19.5 33.5l-7 32.7m292.5 28l14.9 37.3 6.9-32.7m13.7 2.9l-4.6 21.8 8.5 13.2 13.2-8.6 4.7-21.8m13.6 3l-6.9 32.6 13.2-8.6 8.6 13.3 6.9-32.7m-38.9 8.8l-21.8-4.6m105.2 28l-1.1 5.5 4.3 6.6 10.8 2.3 6.6-4.3m13.7 2.9l2.3-10.9 6.6-4.3 16.4 3.5m2.3-10.9l-6.9 32.7-16.4-3.5-4.3-6.6m14.4-14l-8.6-13.2m-13.7-2.9l-21.7-4.7m21.7 4.7l-26.4 17.1m104.1 33.5l21.8 4.6m-10.9-2.3l6.9-32.6m24.6 5.2l-4.6 21.8 8.5 13.2 13.2-8.6 4.7-21.8m-3.5 16.3l-21.8-4.6m68.6 26l4.7-21.8 6.6-4.3 16.3 3.5-7 32.6-16.3-3.4-4.3-6.6m34.3 13l21.8 4.6 7-32.7-21.8-4.6m7.4 18.6l10.9 2.4m11.3 13.7l4.3 6.7 10.9 2.3 6.6-4.3 4.7-21.8-4.3-6.6-10.9-2.3-6.6 4.3m35.4 7.5l-5.8 27.2m21.8 4.7l5.8-27.3-4.3-6.6-10.9-2.3-6.6 4.3m35.5 7.5l-4.6 21.8 4.2 6.6 16.4 3.5 6.9-32.7-16.3-3.4-6.6 4.2m35.5 7.6l-4.7 21.8 4.3 6.6 10.9 2.3 6.6-4.3 4.6-21.8-4.3-6.6-10.8-2.3-6.6 4.3m36.6 2.1l8.5 13.2m-5.4-1.2l-6.6 4.3-2.3 10.9 4.3 6.6 16.3 3.5 6.9-32.7m-2.3 10.9l-16.3-3.5m28.9 11.8l6.6-4.2 16.3 3.4m2.3-10.9l-6.9 32.7-16.4-3.5-4.3-6.6 2.4-10.9m1285.9 4.6v22.3l5.5 5.5h16.7v-33.4h-16.7l-5.5 5.6m35.3-5.6h11.1m-5.6 0v33.4m-5.5 0h11.1m14-33.4h22.3v33.4m13.9-5.5l5.6 5.5h11.1l5.6-5.5v-22.3l-5.6-5.6h-11.1l-5.6 5.6v22.3m36.3 0l5.6 5.5h11.1l5.6-5.5v-5.6l-5.6-5.6h-11.1l-5.6-5.5v-5.6l5.6-5.6h11.1l5.6 5.6m13.9-5.6h22.3v33.4h-22.3m11.2-16.7h11.1m14 0l5.6-5.5h16.7m-11.2 0l-11.1-11.2m0 16.7v11.2l5.6 5.5h16.7v-33.4m13.9 0v22.3l11.2 11.1 11.1-11.1v-22.3m14 5.6v27.8m-14-16.7H3714m36.3-11.1l5.6-5.6h11.1l5.6 5.6v27.8m14-5.5v-22.3l5.5-5.6h11.1l5.6 5.6v22.3l-5.6 5.5h-11.1l-5.5-5.5m11.1-16.7l-11.1-11.2m0-25.6v-27.9l5.5-5.5h11.1l5.6 5.5v27.9m14-5.6l5.6 5.6h16.7v-33.4h-16.7l-5.6 5.5v22.3m5.6 31.2h11.1l5.6 5.6m-5.6 11.1h-11.1l-5.6-5.5v-5.6l5.6-5.6m11.1 16.7l5.6 5.6v5.6l-5.6 5.5h-11.1l-5.6-5.5m-55.8-53.5l5.6-5.6V588l-5.6-5.5h-11.1l-5.6-5.6v-5.6l5.6-5.5h11.1l5.6 5.5m-5.6 27.9h-11.1l-5.6-5.6m-25.1 5.6H3714m5.6 0v-27.9l5.6-5.5h5.5l5.6 5.5m0-31.2H3714m11.2 0v-33.4m25.1 0v33.4m22.3 0l-22.3-33.4m22.3 0v33.4m14-11.1v-22.3m0 16.7h22.2m0 5.6l-11.1 11.1-11.1-11.1m22.2 0v-22.3m14 0v33.4l11.1-11.1 11.2 11.1v-33.4m-11.2-25.6l-11.1-11.2v-22.2m-14 0v33.4l-22.2-33.4v33.4m-14 0v-22.3l-11.2-11.1-11.1 11.1v22.3m-14 0l-11.1-11.2-11.2 11.2v-33.4m-13.9 0v22.2l-11.2 11.2-11.1-11.2v-22.2m0 16.7h22.3m36.2-16.7v33.4m-36.2 25.6h-11.2m5.6 0v33.4m5.6 0h-11.2m-13-5.6l-5.6 5.6h-11.1l-5.6-5.6m-14 0v-22.2l-5.5-5.6h-11.2l-5.5 5.6v22.2l5.5 5.6h11.2l5.5-5.6m14-22.2l5.6-5.6h11.1l5.6 5.6v22.2m1.9 31.3V588l11.1 11.2 11.2-11.2v-22.2m0 16.7h-22.3m-14 11.1v-22.3l-5.6-5.5h-11.1l-5.6 5.5v11.2h11.2m11.1 11.1l-5.6 5.6h-11.1l-5.6-5.6m-13.9 5.6h-16.7l-5.6-5.6v-11.1l5.6-5.6h16.7m0-11.1v33.4m-11.2-22.3l-11.1-11.1m-1.9-25.7h-16.7l-5.6-5.6v-11.1l5.6-5.5h16.7m-11.1 0l-11.2-11.2m-14 0h-22.2m11.1 16.7h11.1m0 16.7v-33.4m36.3 0v33.4m-36.3 0h-22.2m0-118.1h22.2v-33.4h-22.2m-14 0V422h-16.7l-5.6-5.6v-11.1l5.6-5.6h16.7m-11.1 0l-11.2-11.1m36.3-31.2l5.5 5.6h11.2l5.5-5.6v-5.6l-5.5-5.5h-11.2l-5.5-5.6v-5.6l5.5-5.5h11.2l5.5 5.5m14 0l5.6-5.5h16.7V363h-16.7l-5.6-5.6v-5.6l5.6-5.5h16.7m14 0h22.2m0 5.5l-11.1 11.2-11.1-11.2v-22.2m22.2 0v22.2m14-22.2h22.3V363m13 0h11.2m-5.6 0v-33.4m5.6 0h-11.2m25.1 5.5v22.3l5.6 5.6h16.7v-33.4h-16.7l-5.6 5.5m36.3 0V363m22.3 0v-27.9l-5.6-5.5h-11.1l-5.6 5.5m36.3-5.5v22.2l11.1 11.2 11.1-11.2v-22.2m14 5.5l5.6-5.5h11.1l5.6 5.5v22.3l-5.6 5.6h-11.1l-5.6-5.6m0-11.1h11.1m-11.1 0v-11.2m-14 11.2h-22.2m0 42.3V422m-14 0h-22.3m11.1 0v-33.4m-25.1 0h-11.1m5.5 0V422m-5.5 0h11.1m-24.2 0h-16.7l-5.5-5.6v-11.1l5.5-5.6h16.7m-11.1 0l-11.1-11.1m-14 0h-22.3m-14 0V422l-22.2-33.4V422m-14 0h-16.7l-5.6-5.6v-22.2l5.6-5.6h16.7V422m-36.3-16.7H3556m30.7-59l-5.6-5.6v-5.6m83.7 70.2h11.1m0 16.7v-33.4m0 33.4h-22.3m58.5 0v-33.4m74.5 0l22.2 33.4v-33.4m14 0v22.3l11.1 11.1 11.2-11.1v-22.3m0 16.7h-22.3m22.3 42.4v22.2l-11.2 11.2m-11.1-16.7h22.3"/><path fill="none" stroke-width="3" d="M813.3 171.5v-19l-9.5-9.5-9.5 9.5v19m-10-14.3v-9.5l-4.8-4.7H770m-4.7 9.5h19m0 4.7l-4.8 4.8H770l-4.7-4.8v-4.7m-10 0l-9.5 9.5H741m-9.9-4.8l-4.7 4.8h-14.3m-10 0h-4.7v-19m4.7 0h-9.5m-9.8 4.7L678 143h-9.5l-4.7 4.7v9.5l4.7 4.8h9.5l4.8-4.8v-9.5m14.6 23.8v4.7m19.5-23.7h9.5l4.7 4.7m0-14.2h-14.2l-4.8 4.7 4.8 4.8m38.4-9.5v19m-101.5 0v-19m0 19h-14.3l-4.7-4.8V143m-39 0h-19m9.5 0v28.5l9.5-9.5m-29-14.3H562V143h4.8v4.7m-14.5 0l-19 19v-19l4.7-4.7h9.5l4.8 4.7v19l-4.8 4.8H538l-4.7-4.8m-14.8-19V143h-4.7v4.7h4.7m-4.7-4.7l9.5-9.5m-48.4 9.5l-19 19v4.7l4.8 4.8h9.5l4.7-4.8m0-23.7h-19m-10 4.7l-19 19v-19l4.8-4.7h9.5l4.7 4.7v19l-4.7 4.8h-9.5l-4.8-4.8m-10-4.7l-9.5 9.5V143m9.5 0h-19m-10 4.7l-4.7-4.7h-9.5l-4.8 4.7v4.8l4.8 4.7h14.2v-9.5m0 9.5l-9.5 9.5-9.5 4.8"/><path d="M1117.2 1170.3l-54.5 31.5 31.5 54.5 54.5-31.5-31.5-54.5M1310.1 1256.3l31.5-54.5-54.5-31.5-31.5 54.5 54.5 31.5M1291.1 1602.7l54.5-31.5-31.5-54.5-54.5 31.5 31.5 54.5M1086.3 1512.8l-31.5 54.5 54.5 31.5 31.5-54.5-54.5-31.5M2755.6 1508.9l-31.5 54.5 54.5 31.5 31.5-54.5-54.5-31.5M2960.4 1598.8l54.5-31.5-31.5-54.5-54.5 31.5 31.5 54.5M2983.4 1256.3l31.5-54.5-54.5-31.5-31.5 54.5 54.5 31.5M2782.6 1170.3l-54.5 31.5 31.5 54.5 54.5-31.5-31.5-54.5"/><use x="2048.6" y="1386.5" xlink:href="#B1zQd3YM5_pad-15"/><path fill="none" stroke-width="5.9" d="M3312.4 588.3h33.6l4.5-44.4 10-3 9.7-4 9.2-5 34.6 28.2 23.8-23.7-28.3-34.6 5.1-9.2 4-9.7 2.9-10 44.4-4.6v-33.5l-44.4-4.6-2.9-10-4-9.7-5.1-9.1 28.3-34.7L3414 343l-34.6 28.2-6.8-3.9-7.2-3.3-19.7 47.8 6.4 3.3 5.8 4.3 4.9 5.3 4.1 6 2.9 6.6 1.8 7 .6 7.3-.7 8-2.3 7.8-3.6 7.2-5 6.3-6 5.4-6.9 4.1-7.6 2.8-8 1.3-8.1-.2-7.9-1.7-7.4-3.2-6.7-4.4-5.8-5.7-4.6-6.6-3.2-7.4-1.9-7.9-.3-8 1.1-8 2.7-7.7 4-7 5.2-6.1 6.4-5.1 7.1-3.7-19.8-47.8-7.1 3.3-6.8 3.9-34.7-28.2-23.7 23.7 28.2 34.7-5 9.1-4 9.7-2.9 10-44.5 4.6v33.5l44.5 4.6 2.9 10 4 9.7 5 9.2-28.2 34.6 23.7 23.7 34.7-28.2 9.1 5 9.7 4 10.1 3 4.5 44.4m-.2-1.8h33.9m.6-5.7h-35.1m-.6-5.8h36.3m.6-5.7h-37.5m-.5-5.8h38.6m.6-5.7h-39.8m-.6-5.8h41m.5-5.8h-42.1m-11.4-5.7h64.9m12.6-5.8h-90.1m-8.6 0h-53.6m2.8 5.8h43.7m-7 5.7h-31m5.8 5.8h18.1m-7 5.8h-5.3m-15.4-28.8h205.1m4.7 5.7h-53.5m7 5.8h43.8m-5.8 5.7H3397m7 5.8h18.1m-5.7 5.8h-5.3m15.9-34.6h-195.7m4.7-5.7h186.3m-4.7-5.8h-176.9m4.7-5.7h167.5m-2.5-5.8H3248m-3.2-5.8h84.6m3.1 0h81m2.7-5.7h-65.6m7.8-5.8h60.2m1.6-5.7h-56.6m3.6-5.8h68.5m30.2-5.7h-96.2m1.7-5.8h94.5m0-5.7H3372m0-5.8h93.9m0-5.8h-94.7m-1.6-5.7h96.3m-35.6-5.8H3367m-3.7-5.7h56.8m-1.8-5.8H3358m-8.3-5.7h66.2m-2.7-5.8h-66m2.4-5.7h60.5m3.3-5.8h-61.5m2.4-5.8h63.8m4.7-5.7h-66.1m2.4-5.8h68.4m4.7-5.7h-70.7m2.4-5.8h9.5m10.1 0h53.4m-3.8-5.7h-42.5m7-5.8h29.7m-5.7-5.7h-16.9m7.1-5.8h4m-111.8 46h-63.7m-4.7-5.7h66m-2.3-5.8h-68.4m-4.7-5.7h70.7m-2.4-5.8h-9.6m-10.1 0h-53.3m3.7-5.7h42.6m-7.1-5.8H3231m5.8-5.7h16.8m-7-5.8h-4.1m2.5 51.8h61.4m2.4 5.8h-60.5m-3.2 5.7h66.1m-2.5 5.8h-66.3m-2.4 5.7h60.5m-5.4 5.8h-56.8m-10.2 5.7h63.4m-2.6 5.8h-96.5m0 5.7h94.7m-.8 5.8h-93.9m0 5.8h94m.7 5.7h-94.7m0 5.8h96.1m2.6 5.7h-68.4m15.4 5.8h56.7m5.1 5.7h-60.1m2.4 5.8h65.4"/><path fill="none" stroke-width="21" d="M3436.3 1253.2h222m29 24v219m0 .1l.1 3-.3 3.1-.6 2.9-1 2.9-1.2 2.8-1.6 2.6-1.9 2.4-2.1 2.2-2.3 1.9-2.6 1.7-2.7 1.4-2.8 1-3 .7-3 .4m0-.1h-218m-1 .1l-3 .1-3.1-.3-2.9-.6-2.9-1-2.8-1.2-2.6-1.6-2.4-1.9-2.2-2.1-1.9-2.3-1.7-2.6-1.4-2.7-1-2.8-.7-3-.4-3m0-.1v-218m0-1l-.1-3.1.4-3.2.7-3.1 1-2.9 1.4-2.8 1.8-2.7 2-2.4 2.4-2.1 2.5-1.8 2.8-1.5 2.9-1.2 3.1-.8 3.1-.4m220 0l3-.1 3.1.3 2.9.6 2.9 1 2.8 1.2 2.6 1.6 2.4 1.9 2.2 2.1 1.9 2.3 1.7 2.6 1.4 2.7 1 2.8.7 3 .4 3"/><path fill="none" stroke-width="24" d="M3550.3 1313.2v81m5 3h-12m7-12l128 129m-127-130l-129 128"/><path fill="none" stroke-width="22" d="M3429.3 1518.2l12-24m220 4l7 22"/><path fill="none" stroke-width="1" d="M3561.7 1312.2l-22.9.2v-7l18.5-9.2h4.4v16m0-.4h-22.9m0-.9h22.9m0-.8h-22.9m0-.9h22.9m0-.8h-22.9m0-.9h22.9m0-.8h-22.9m0-.9h22.9m0-.8h-22.2m1.7-.9h20.5m0-.8H3543m1.7-.9h17m0-.8h-15.3m1.8-.9h13.5m0-.8h-11.8m1.7-.9h10.1m0-.8h-8.4m1.8-.9h6.6m0-.8h-4.9"/><path fill="none" d="M952.2 445.6l.2 3 .6 3 .9 2.9 1.3 2.7 1.7 2.5 1.9 2.3 2.3 2.1 2.5 1.7 2.6 1.4 2.9 1 2.9.7 3 .3 3.1-.1 3-.5 2.9-.9 2.7-1.2 2.6-1.5 2.4-1.9 2.1-2.2 1.8-2.4 1.5-2.7 1.1-2.8.8-2.9.4-3v-3l-.4-3-.8-2.9-1.1-2.8-1.5-2.7-1.8-2.4-2.1-2.2-2.4-1.9-2.6-1.5-2.7-1.2-2.9-.9-3-.5-3.1-.1-3 .3-2.9.7-2.9 1-2.6 1.4-2.5 1.7-2.3 2.1-1.9 2.3-1.7 2.5-1.3 2.7-.9 2.9-.6 3-.2 3m0-236.2l.2 3 .6 3 .9 2.9 1.3 2.7 1.7 2.5 1.9 2.3 2.3 2.1 2.5 1.7 2.6 1.4 2.9 1 2.9.7 3 .3 3.1-.1 3-.5 2.9-.9 2.7-1.2 2.6-1.5 2.4-1.9 2.1-2.2 1.8-2.4 1.5-2.7 1.1-2.8.8-2.9.4-3v-3l-.4-3-.8-2.9-1.1-2.8-1.5-2.7-1.8-2.4-2.1-2.2-2.4-1.9-2.6-1.5-2.7-1.2-2.9-.9-3-.5-3.1-.1-3 .3-2.9.7-2.9 1-2.6 1.4-2.5 1.7-2.3 2.1-1.9 2.3-1.7 2.5-1.3 2.7-.9 2.9-.6 3-.2 3"/></g><g id="SymO2Kf5_bottom_sp"><path fill="none" stroke-width="8" d="M168.7 1642.4h3799.2"/><path fill="none" stroke-width="7.9" d="M296.7 102.3l2.3 6.3 2 6.5 1.6 6.6 1.3 6.6.8 6.7.5 6.7.1 6.8-.3 6.7-.7 6.8-1.1 6.6-1.4 6.6-1.8 6.6-2.2 6.3-2.6 6.3-2.9 6.1-3.2 5.9-3.6 5.8-3.9 5.5-4.2 5.3-4.6 5-4.7 4.8-5.1 4.5-5.3 4.1-5.5 3.9-5.8 3.6-5.9 3.2-6.1 2.9-6.3 2.5-6.4 2.2-6.5 1.8-6.6 1.4-6.7 1.1-6.7.6-6.8.3-6.7-.1-6.8-.5-6.7-.9m.5 1.1v1377.9M1212 303.8l708.3 134.4m.8-.6l1 6.7 1.5 6.6 1.8 6.6 2.2 6.4 2.6 6.2 2.9 6.2 3.2 5.9 3.6 5.7 3.9 5.6 4.3 5.3 4.5 5 4.8 4.8 5 4.5 5.4 4.2 5.5 3.9 5.8 3.5 5.9 3.3 6.1 2.9 6.3 2.5 6.4 2.1 6.6 1.8 6.6 1.4 6.7 1.1 6.7.6 6.8.3 6.8-.1 6.7-.5 6.7-.9 6.7-1.3 6.6-1.7 6.4-2 6.4-2.4 6.1-2.8 6.1-3.1 5.8-3.4 5.6-3.8 5.4-4.1 5.2-4.4 4.9-4.7 4.6-4.9 4.3-5.2 4-5.5 3.7-5.6 3.4-5.9 3-6.1 2.7-6.2 2.4-6.4 1.9-6.4 1.6-6.6 1.2-6.7.8-6.7m4.1 4.9l705.3-134.4V107h905.5m7.3 1.8l-2.1 6.4-1.6 6.4-1.3 6.6-1 6.6-.5 6.6-.2 6.7.2 6.6.6 6.7.9 6.6 1.3 6.5 1.7 6.4 2.1 6.4 2.4 6.2 2.8 6.1 3 5.9 3.5 5.7 3.7 5.5 4.1 5.3 4.3 5 4.6 4.8 4.9 4.6 5.1 4.2 5.4 4 5.6 3.6 5.8 3.3 5.9 3 6.1 2.6 6.3 2.3 6.4 2 6.5 1.5 6.5 1.2 6.6.9 6.7.4 6.6.1 6.7-.3 6.6-.7 6.6-1.1m-2.3 1.1v748h59v629.9M1212 303.8V107H306.5"/><path fill="none" d="M952.2 209.4l.2 3 .6 3 .9 2.9 1.3 2.7 1.7 2.5 1.9 2.3 2.3 2.1 2.5 1.7 2.6 1.4 2.9 1 2.9.7 3 .3 3.1-.1 3-.5 2.9-.9 2.7-1.2 2.6-1.5 2.4-1.9 2.1-2.2 1.8-2.4 1.5-2.7 1.1-2.8.8-2.9.4-3v-3l-.4-3-.8-2.9-1.1-2.8-1.5-2.7-1.8-2.4-2.1-2.2-2.4-1.9-2.6-1.5-2.7-1.2-2.9-.9-3-.5-3.1-.1-3 .3-2.9.7-2.9 1-2.6 1.4-2.5 1.7-2.3 2.1-1.9 2.3-1.7 2.5-1.3 2.7-.9 2.9-.6 3-.2 3m0 236.2l.2 3 .6 3 .9 2.9 1.3 2.7 1.7 2.5 1.9 2.3 2.3 2.1 2.5 1.7 2.6 1.4 2.9 1 2.9.7 3 .3 3.1-.1 3-.5 2.9-.9 2.7-1.2 2.6-1.5 2.4-1.9 2.1-2.2 1.8-2.4 1.5-2.7 1.1-2.8.8-2.9.4-3v-3l-.4-3-.8-2.9-1.1-2.8-1.5-2.7-1.8-2.4-2.1-2.2-2.4-1.9-2.6-1.5-2.7-1.2-2.9-.9-3-.5-3.1-.1-3 .3-2.9.7-2.9 1-2.6 1.4-2.5 1.7-2.3 2.1-1.9 2.3-1.7 2.5-1.3 2.7-.9 2.9-.6 3-.2 3"/></g><g id="SymO2Kf5_bottom_sm"><path fill="none" stroke-width="8" d="M168.7 1642.4h3799.2"/><path fill="none" stroke-width="7.9" d="M296.7 102.3l2.3 6.3 2 6.5 1.6 6.6 1.3 6.6.8 6.7.5 6.7.1 6.8-.3 6.7-.7 6.8-1.1 6.6-1.4 6.6-1.8 6.6-2.2 6.3-2.6 6.3-2.9 6.1-3.2 5.9-3.6 5.8-3.9 5.5-4.2 5.3-4.6 5-4.7 4.8-5.1 4.5-5.3 4.1-5.5 3.9-5.8 3.6-5.9 3.2-6.1 2.9-6.3 2.5-6.4 2.2-6.5 1.8-6.6 1.4-6.7 1.1-6.7.6-6.8.3-6.7-.1-6.8-.5-6.7-.9m.5 1.1v1377.9M1212 303.8l708.3 134.4m.8-.6l1 6.7 1.5 6.6 1.8 6.6 2.2 6.4 2.6 6.2 2.9 6.2 3.2 5.9 3.6 5.7 3.9 5.6 4.3 5.3 4.5 5 4.8 4.8 5 4.5 5.4 4.2 5.5 3.9 5.8 3.5 5.9 3.3 6.1 2.9 6.3 2.5 6.4 2.1 6.6 1.8 6.6 1.4 6.7 1.1 6.7.6 6.8.3 6.8-.1 6.7-.5 6.7-.9 6.7-1.3 6.6-1.7 6.4-2 6.4-2.4 6.1-2.8 6.1-3.1 5.8-3.4 5.6-3.8 5.4-4.1 5.2-4.4 4.9-4.7 4.6-4.9 4.3-5.2 4-5.5 3.7-5.6 3.4-5.9 3-6.1 2.7-6.2 2.4-6.4 1.9-6.4 1.6-6.6 1.2-6.7.8-6.7m4.1 4.9l705.3-134.4V107h905.5m7.3 1.8l-2.1 6.4-1.6 6.4-1.3 6.6-1 6.6-.5 6.6-.2 6.7.2 6.6.6 6.7.9 6.6 1.3 6.5 1.7 6.4 2.1 6.4 2.4 6.2 2.8 6.1 3 5.9 3.5 5.7 3.7 5.5 4.1 5.3 4.3 5 4.6 4.8 4.9 4.6 5.1 4.2 5.4 4 5.6 3.6 5.8 3.3 5.9 3 6.1 2.6 6.3 2.3 6.4 2 6.5 1.5 6.5 1.2 6.6.9 6.7.4 6.6.1 6.7-.3 6.6-.7 6.6-1.1m-2.3 1.1v748h59v629.9M1212 303.8V107H306.5"/><use x="3700.6" y="754.2" xlink:href="#Hyl4_nYz9_pad-12"/><use x="3800.6" y="754.2" xlink:href="#Hyl4_nYz9_pad-12"/><use x="3800.6" y="854.2" xlink:href="#Hyl4_nYz9_pad-12"/><use x="3700.6" y="854.2" xlink:href="#Hyl4_nYz9_pad-12"/><use x="3700.6" y="954.2" xlink:href="#Hyl4_nYz9_pad-12"/><use x="3800.6" y="954.2" xlink:href="#Hyl4_nYz9_pad-12"/><use x="2967.1" y="1110.9" xlink:href="#Hyl4_nYz9_pad-13"/><use x="2868.7" y="1110.9" xlink:href="#Hyl4_nYz9_pad-13"/><use x="2770.3" y="1110.9" xlink:href="#Hyl4_nYz9_pad-13"/><use x="1302.6" y="1110.9" xlink:href="#Hyl4_nYz9_pad-13"/><use x="1204.1" y="1110.9" xlink:href="#Hyl4_nYz9_pad-13"/><use x="1105.7" y="1110.9" xlink:href="#Hyl4_nYz9_pad-13"/><use x="1027" y="1386.5" xlink:href="#Hyl4_nYz9_pad-14"/><use x="1381.3" y="1386.5" xlink:href="#Hyl4_nYz9_pad-14"/><use x="2691.5" y="1386.5" xlink:href="#Hyl4_nYz9_pad-14"/><use x="3045.9" y="1386.5" xlink:href="#Hyl4_nYz9_pad-14"/><use x="3006.3" y="282.3" xlink:href="#Hyl4_nYz9_pad-15"/><use x="3197.2" y="282.3" xlink:href="#Hyl4_nYz9_pad-15"/><use x="3242.5" y="164.2" xlink:href="#Hyl4_nYz9_pad-16"/><use x="2961" y="164.2" xlink:href="#Hyl4_nYz9_pad-16"/><path fill="none" d="M952.2 209.4l.2 3 .6 3 .9 2.9 1.3 2.7 1.7 2.5 1.9 2.3 2.3 2.1 2.5 1.7 2.6 1.4 2.9 1 2.9.7 3 .3 3.1-.1 3-.5 2.9-.9 2.7-1.2 2.6-1.5 2.4-1.9 2.1-2.2 1.8-2.4 1.5-2.7 1.1-2.8.8-2.9.4-3v-3l-.4-3-.8-2.9-1.1-2.8-1.5-2.7-1.8-2.4-2.1-2.2-2.4-1.9-2.6-1.5-2.7-1.2-2.9-.9-3-.5-3.1-.1-3 .3-2.9.7-2.9 1-2.6 1.4-2.5 1.7-2.3 2.1-1.9 2.3-1.7 2.5-1.3 2.7-.9 2.9-.6 3-.2 3m0 236.2l.2 3 .6 3 .9 2.9 1.3 2.7 1.7 2.5 1.9 2.3 2.3 2.1 2.5 1.7 2.6 1.4 2.9 1 2.9.7 3 .3 3.1-.1 3-.5 2.9-.9 2.7-1.2 2.6-1.5 2.4-1.9 2.1-2.2 1.8-2.4 1.5-2.7 1.1-2.8.8-2.9.4-3v-3l-.4-3-.8-2.9-1.1-2.8-1.5-2.7-1.8-2.4-2.1-2.2-2.4-1.9-2.6-1.5-2.7-1.2-2.9-.9-3-.5-3.1-.1-3 .3-2.9.7-2.9 1-2.6 1.4-2.5 1.7-2.3 2.1-1.9 2.3-1.7 2.5-1.3 2.7-.9 2.9-.6 3-.2 3"/><use x="975.8" y="445.6" xlink:href="#Hyl4_nYz9_pad-18"/><use x="975.8" y="209.4" xlink:href="#Hyl4_nYz9_pad-18"/></g><g id="SymO2Kf5_bottom_drl1"><use x="70030" y="26820" xlink:href="#rJvNd3tMc_pad-1"/><use x="11403" y="40820" xlink:href="#rJvNd3tMc_pad-1"/><use x="86030" y="61820" xlink:href="#rJvNd3tMc_pad-1"/><use x="77030" y="72820" xlink:href="#rJvNd3tMc_pad-1"/><use x="64030" y="61820" xlink:href="#rJvNd3tMc_pad-1"/><use x="43030" y="77820" xlink:href="#rJvNd3tMc_pad-1"/><use x="45030" y="97820" xlink:href="#rJvNd3tMc_pad-1"/><use x="47030" y="10982" xlink:href="#rJvNd3tMc_pad-1"/><use x="62030" y="97820" xlink:href="#rJvNd3tMc_pad-1"/><use x="70030" y="10282" xlink:href="#rJvNd3tMc_pad-1"/><use x="85030" y="87820" xlink:href="#rJvNd3tMc_pad-1"/><use x="10503" y="97820" xlink:href="#rJvNd3tMc_pad-1"/><use x="12328" y="97820" xlink:href="#rJvNd3tMc_pad-1"/><use x="15578" y="10157" xlink:href="#rJvNd3tMc_pad-1"/><use x="15703" y="11807" xlink:href="#rJvNd3tMc_pad-1"/><use x="15103" y="11782" xlink:href="#rJvNd3tMc_pad-1"/><use x="18490" y="13986" xlink:href="#rJvNd3tMc_pad-1"/><use x="19490" y="14386" xlink:href="#rJvNd3tMc_pad-1"/><use x="21090" y="15186" xlink:href="#rJvNd3tMc_pad-1"/><use x="23990" y="14286" xlink:href="#rJvNd3tMc_pad-1"/><use x="23403" y="10532" xlink:href="#rJvNd3tMc_pad-1"/><use x="23803" y="85820" xlink:href="#rJvNd3tMc_pad-1"/><use x="22003" y="71820" xlink:href="#rJvNd3tMc_pad-1"/><use x="23303" y="58820" xlink:href="#rJvNd3tMc_pad-1"/><use x="32526" y="35480" xlink:href="#rJvNd3tMc_pad-1"/><use x="27903" y="55820" xlink:href="#rJvNd3tMc_pad-1"/><use x="26603" y="70820" xlink:href="#rJvNd3tMc_pad-1"/><use x="25803" y="73820" xlink:href="#rJvNd3tMc_pad-1"/><use x="26603" y="85820" xlink:href="#rJvNd3tMc_pad-1"/><use x="27103" y="88820" xlink:href="#rJvNd3tMc_pad-1"/><use x="27903" y="82820" xlink:href="#rJvNd3tMc_pad-1"/><use x="28503" y="74820" xlink:href="#rJvNd3tMc_pad-1"/><use x="29403" y="74820" xlink:href="#rJvNd3tMc_pad-1"/><use x="31403" y="66820" xlink:href="#rJvNd3tMc_pad-1"/><use x="33303" y="78820" xlink:href="#rJvNd3tMc_pad-1"/><use x="32003" y="86820" xlink:href="#rJvNd3tMc_pad-1"/><use x="29403" y="97820" xlink:href="#rJvNd3tMc_pad-1"/><use x="28303" y="10182" xlink:href="#rJvNd3tMc_pad-1"/><use x="31303" y="10682" xlink:href="#rJvNd3tMc_pad-1"/><use x="32303" y="10982" xlink:href="#rJvNd3tMc_pad-1"/><use x="34803" y="11082" xlink:href="#rJvNd3tMc_pad-1"/><use x="35453" y="11282" xlink:href="#rJvNd3tMc_pad-1"/><use x="35953" y="10782" xlink:href="#rJvNd3tMc_pad-1"/><use x="38578" y="12282" xlink:href="#rJvNd3tMc_pad-1"/><use x="35953" y="13157" xlink:href="#rJvNd3tMc_pad-1"/><use x="35453" y="12782" xlink:href="#rJvNd3tMc_pad-1"/><use x="34828" y="13582" xlink:href="#rJvNd3tMc_pad-1"/><use x="32303" y="15082" xlink:href="#rJvNd3tMc_pad-1"/><use x="37903" y="15682" xlink:href="#rJvNd3tMc_pad-1"/><use x="34978" y="69820" xlink:href="#rJvNd3tMc_pad-1"/><use x="18403" y="54820" xlink:href="#rJvNd3tMc_pad-1"/><use x="16903" y="62820" xlink:href="#rJvNd3tMc_pad-1"/><use x="16903" y="76820" xlink:href="#rJvNd3tMc_pad-1"/><use x="18953" y="97820" xlink:href="#rJvNd3tMc_pad-1"/><use x="12828" y="74070" xlink:href="#rJvNd3tMc_pad-1"/><use x="15003" y="44820" xlink:href="#rJvNd3tMc_pad-1"/><use x="28030" y="43820" xlink:href="#rJvNd3tMc_pad-1"/><use x="79030" y="12282" xlink:href="#rJvNd3tMc_pad-1"/><use x="52030" y="12582" xlink:href="#rJvNd3tMc_pad-1"/><use x="36203" y="46570" xlink:href="#rJvNd3tMc_pad-2"/><use x="36703" y="10782" xlink:href="#rJvNd3tMc_pad-2"/><use x="42030" y="14282" xlink:href="#rJvNd3tMc_pad-2"/><use x="17490" y="12186" xlink:href="#rJvNd3tMc_pad-2"/><use x="31972" y="28230" xlink:href="#rJvNd3tMc_pad-3"/><use x="30063" y="28230" xlink:href="#rJvNd3tMc_pad-3"/><use x="38006" y="75420" xlink:href="#rJvNd3tMc_pad-4"/><use x="37006" y="75420" xlink:href="#rJvNd3tMc_pad-4"/><use x="37006" y="85420" xlink:href="#rJvNd3tMc_pad-4"/><use x="38006" y="85420" xlink:href="#rJvNd3tMc_pad-4"/><use x="38006" y="95420" xlink:href="#rJvNd3tMc_pad-4"/><use x="37006" y="95420" xlink:href="#rJvNd3tMc_pad-4"/><use x="11057" y="11109" xlink:href="#rJvNd3tMc_pad-5"/><use x="12041" y="11109" xlink:href="#rJvNd3tMc_pad-5"/><use x="13026" y="11109" xlink:href="#rJvNd3tMc_pad-5"/><use x="29671" y="11109" xlink:href="#rJvNd3tMc_pad-5"/><use x="28687" y="11109" xlink:href="#rJvNd3tMc_pad-5"/><use x="27703" y="11109" xlink:href="#rJvNd3tMc_pad-5"/><use x="97580" y="20940" xlink:href="#rJvNd3tMc_pad-6"/><use x="97580" y="44560" xlink:href="#rJvNd3tMc_pad-6"/><use x="32425" y="16420" xlink:href="#rJvNd3tMc_pad-7"/><use x="29610" y="16420" xlink:href="#rJvNd3tMc_pad-7"/><use x="30459" y="13865" xlink:href="#rJvNd3tMc_pad-8"/><use x="26915" y="13865" xlink:href="#rJvNd3tMc_pad-8"/><use x="10270" y="13865" xlink:href="#rJvNd3tMc_pad-8"/><use x="13813" y="13865" xlink:href="#rJvNd3tMc_pad-8"/></g><clipPath id="SymO2Kf5_bottom_out"><path fill="none" stroke-width="8" d="M168.7 1642.4h3799.2v-629.9h-59l-4.3-748-13.3 1-13.3-.5-13.1-2.1-12.9-3.5-12.4-4.9-11.7-6.3-11-7.6-10-8.8-8.9-9.8-7.8-10.8-6.5-11.6-5.2-12.3-3.8-12.8-2.2-13.1-.8-13.3.7-13.3 2.3-13.2-3.6-14.6h-905.5v196.8L2155.4 440l-2.8 13.3-4.3 12.8-5.7 12.3-7.1 11.5-8.3 10.7-9.5 9.6-10.6 8.5-11.4 7.2-12.2 5.9-12.8 4.4-13.3 3-13.4 1.4-13.6-.2-13.4-1.7-13.2-3.2-12.7-4.6-12-6.2-11.3-7.4-10.4-8.7-9.3-9.8-8.2-10.9-6.8-11.6-5.5-12.4-4-13-3.3-12.7L1212 303.8V107l-915.3-4.7 2.3 6.3 3.6 13.1 2.1 13.3.6 13.5-1 13.5-2.5 13.2-4 12.9-5.5 12.4-6.8 11.7-8.1 10.8-9.3 9.8-10.4 8.6-11.3 7.5-12 6.1-12.7 4.7-13.1 3.2-13.4 1.7-13.5.2-13.5-1.4.5 1379M952.2 209.4l.2 3 4.5 11.1 9.3 7.5 11.9 1.9 11.2-4.1 7.8-9.2 2.3-11.7-3.8-11.4-8.9-8-11.7-2.7-11.4 3.4-8.4 8.6-3 11.6m0 236.2l.2 3 4.5 11.1 9.3 7.5 11.9 1.9 11.2-4.1 7.8-9.2 2.3-11.7-3.8-11.4-8.9-8L975 422l-11.4 3.4-8.4 8.6-3 11.6m43.3 899.6h63v82.7h-63v-82.7m354.3 0h63v82.7h-63v-82.7m1310.2 0h63v82.7h-63v-82.7m354.4 0h63v82.7h-63v-82.7"/></clipPath><mask id="SymO2Kf5_bottom_mech-mask" stroke="#000"><path fill="#fff" d="M168.2 102.3h3799.7v1540.1H168.2z"/><use xlink:href="#SymO2Kf5_bottom_drl1"/></mask><mask id="SymO2Kf5_bottom_cf-mask" fill="#fff" stroke="#fff"><use xlink:href="#SymO2Kf5_bottom_sm"/></mask><mask id="SymO2Kf5_bottom_sm-mask" stroke="#000"><path fill="#fff" d="M168.2 102.3h3799.7v1540.1H168.2z"/><use xlink:href="#SymO2Kf5_bottom_sm"/></mask></defs><g><g mask="url(#SymO2Kf5_bottom_mech-mask)" clip-path="url(#SymO2Kf5_bottom_out)" transform="rotate(180 2068.05 872.35)"><path fill="currentColor" d="M168.2 102.3h3799.7v1540.1H168.2z" class="SymO2Kf5_fr4"/><use fill="currentColor" stroke="currentColor" xlink:href="#SymO2Kf5_bottom_cu" class="SymO2Kf5_cu"/><use fill="currentColor" stroke="currentColor" xlink:href="#SymO2Kf5_bottom_cu" class="SymO2Kf5_cf" mask="url(#SymO2Kf5_bottom_cf-mask)"/><g mask="url(#SymO2Kf5_bottom_sm-mask)"><path fill="currentColor" d="M168.2 102.3h3799.7v1540.1H168.2z" class="SymO2Kf5_sm"/><use fill="currentColor" stroke="currentColor" xlink:href="#SymO2Kf5_bottom_ss" class="SymO2Kf5_ss"/></g><use fill="currentColor" stroke="currentColor" xlink:href="#SymO2Kf5_bottom_sp" class="SymO2Kf5_sp"/></g></g></svg>